<svg xmlns="http://www.w3.org/2000/svg" xmlns:xlink="http://www.w3.org/1999/xlink" width="1024" height="121" viewBox="0 0 1024 121">
    <defs>
        <linearGradient id="prefix__c" x1="58.577%" x2="16.279%" y1="14.254%" y2="53.83%">
            <stop offset="0%" stop-color="#B5EB45"/>
            <stop offset="100%" stop-color="#21C1D3"/>
        </linearGradient>
        <path id="prefix__a" d="M0 0L1024 0 1024 120 525.17 120 0 120z"/>
    </defs>
    <g fill="none" fill-rule="evenodd" transform="translate(0 .97)">
        <mask id="prefix__b" fill="#fff">
            <use xlink:href="#prefix__a"/>
        </mask>
        <use fill="#F3F4F6" xlink:href="#prefix__a"/>
        <path fill="#C8D92D" d="M522-62c0 76.767-62.232 139-139 139S244 14.767 244-62s62.232-139 139-139 139 62.233 139 139" mask="url(#prefix__b)" opacity=".94"/>
        <path fill="#8BC440" d="M551.861-49.463c-10.148-19.051-11.911-41.517-4.833-62.219 4.585-13.412 5.302-34.131 1.518-47.88-12.16-44.171-68.402-70.488-122.63-50.825-49.72 18.028-61.893 92.41-100.07 84.323-89.793-19.018-122.134 44.887-117.397 96.91 3.059 33.602 31.284 75.164 91.577 70.8 17.751-1.285 35.185 3.072 50.207 11.747 25.656 14.814 66.433 18.288 108.795 6.661 63.719-17.488 106.88-62.51 96.405-100.56-.861-3.134-2.06-6.122-3.572-8.957" mask="url(#prefix__b)" opacity=".676"/>
        <path fill="url(#prefix__c)" d="M984.345-7.186c-8.287-15.563-9.727-33.916-3.947-50.827 3.745-10.956 4.33-27.882 1.24-39.113-9.93-36.083-55.858-57.582-100.142-41.52-40.602 14.728-50.543 75.49-81.72 68.885-73.325-15.536-99.736 36.668-95.868 79.165 2.498 27.45 25.548 61.402 74.784 57.837 14.496-1.05 28.732 2.51 41 9.596 20.95 12.102 54.25 14.94 88.844 5.442C960.57 67.993 995.816 31.213 987.262.13c-.703-2.56-1.683-5-2.917-7.317" mask="url(#prefix__b)" opacity=".676" transform="rotate(-162 846.042 -28.047)"/>
        <circle cx="588.8" cy="48.584" r="16" fill="#00D1FF" mask="url(#prefix__b)" opacity=".1"/>
    </g>
</svg>
