<?xml version="1.0" encoding="UTF-8"?>
<svg width="239px" height="48px" viewBox="0 0 239 48" version="1.1" xmlns="http://www.w3.org/2000/svg" xmlns:xlink="http://www.w3.org/1999/xlink">
    <!-- Generator: Sketch 63.1 (92452) - https://sketch.com -->
    <title>CIC_Logo</title>
    <desc>Created with Sketch.</desc>
    <defs>
        <polygon id="path-1" points="0.28042328 48.0571262 239.155355 48.0571262 239.155355 0.473144741 0.28042328 0.473144741"></polygon>
    </defs>
    <g id="final" stroke="none" stroke-width="1" fill="none" fill-rule="evenodd">
        <g id="Assets" transform="translate(-53.000000, -208.000000)">
            <g id="CIC_Logo" transform="translate(52.000000, 207.000000)">
                <polygon id="Fill-1" fill="#7FB439" points="18.0530973 1.0619469 1.0619469 11.2529572 1.0619469 39.2920354 18.0530973 29.095768 18.0530973 21.0864803 8.77070738 26.6564444 8.77070738 14.6385701 18.0530973 9.07123456"></polygon>
                <polygon id="Fill-2" fill="#939597" points="18.0530973 1.0619469 18.0530973 9.07123456 22.6955573 11.8575309 22.6955573 23.8701481 18.0530973 21.0864803 18.0530973 29.095768 22.6955573 31.8820643 30.4043178 36.5083677 35.0442478 39.2920354 35.0442478 31.2801192 30.4043178 28.4964514 30.4043178 16.4812056 35.0442478 19.267502 35.0442478 11.2529572"></polygon>
                <polygon id="Fill-3" fill="#626366" points="1.0619469 38.2314579 18.5840708 48.8495575 36.1061947 38.2314579 31.3160488 35.3311309 21.7540203 41.1290461 13.799143 36.3116003 23.3716076 30.5109464 18.5840708 27.6106195"></polygon>
                <g id="Group-58">
                    <path d="M49.4136438,12.9137947 C49.1860068,12.2344295 48.6993346,11.7539658 47.9326951,11.7539658 C46.8913212,11.7539658 46.2607406,12.71231 46.2607406,14.6005837 C46.2345754,16.4862743 46.8023597,17.4420353 47.9797924,17.4420353 C48.6784024,17.4420353 49.1101278,17.1992203 49.5758678,16.2512087 L51.0175688,16.6283469 C50.5335131,18.0258244 49.4685906,18.7413536 47.9797924,18.7413536 C45.8996612,18.7413536 44.6960634,17.2328011 44.6960634,14.6005837 C44.6960634,11.9657831 45.8996612,10.4598138 47.9797924,10.4598138 C49.5392366,10.4598138 50.447168,11.1495116 50.8291795,12.5779868 L49.4136438,12.9137947 Z" id="Fill-4" fill="#090909"></path>
                    <path d="M55.0326143,11.7534492 C53.7557539,11.7534492 53.1670376,12.7143765 53.1670376,14.6000671 C53.1408724,16.4857577 53.7400548,17.4441018 55.0326143,17.4441018 C56.3094747,17.4441018 56.9008075,16.4857577 56.9008075,14.6000671 C56.9008075,12.7143765 56.3094747,11.7534492 55.0326143,11.7534492 M55.0326143,18.740837 C52.8033417,18.740837 51.6023603,17.2322845 51.6023603,14.6000671 C51.6023603,11.9652665 52.8033417,10.4592972 55.0326143,10.4592972 C57.2592704,10.4592972 58.4576352,11.9652665 58.4576352,14.6000671 C58.4576352,17.2322845 57.2592704,18.740837 55.0326143,18.740837" id="Fill-6" fill="#090909"></path>
                    <polygon id="Fill-8" fill="#090909" points="59.7187965 18.6287288 59.7187965 10.571922 61.3488867 10.571922 64.5593532 16.0610898 64.5802853 16.0610898 64.5802853 10.571922 66.050768 10.571922 66.050768 18.6287288 64.5515037 18.6287288 61.2154443 12.8889966 61.1918957 12.8889966 61.1918957 18.6287288"></polygon>
                    <path d="M71.7027066,12.7133432 C71.4619871,12.0882239 70.9779314,11.6645893 70.2426901,11.6645893 C69.5676287,11.6645893 69.0809565,11.9306525 69.0809565,12.5583549 C69.0809565,13.9429168 73.2856995,13.6536054 73.2856995,16.2625746 C73.2856995,17.9131996 72.2338596,18.7398037 70.4284628,18.7398037 C69.0940391,18.7398037 67.8381108,18.0010263 67.3749873,16.8308649 L68.6623137,16.2729071 C69.0338592,17.0297665 69.5205314,17.5334784 70.4389289,17.5334784 C71.2160345,17.5334784 71.8178334,17.2441669 71.8178334,16.4666424 C71.8178334,14.8780127 67.6078573,15.1879892 67.6078573,12.7133432 C67.6078573,11.2719523 68.8323873,10.4582639 70.2426901,10.4582639 C71.5561817,10.4582639 72.6394198,11.1066315 73.1287085,12.2793761 L71.7027066,12.7133432 Z" id="Fill-10" fill="#090909"></path>
                    <polygon id="Fill-12" fill="#090909" points="79.9329613 10.5577147 79.9329613 11.8544499 77.7952668 11.8544499 77.7952668 18.6300203 76.2358226 18.6300203 76.2358226 11.8544499 74.0981281 11.8544499 74.0981281 10.5577147"></polygon>
                    <path d="M82.5955291,14.0968718 L83.7520297,14.0968718 C84.9713267,14.0968718 85.3481052,13.7171506 85.3481052,12.9577081 C85.3481052,12.1982655 84.8823651,11.8185443 84.0241475,11.8185443 L82.5955291,11.8185443 L82.5955291,14.0968718 Z M81.0387014,18.6276955 L81.0387014,10.5708887 L84.2910323,10.5708887 C86.1435264,10.5708887 86.8918503,11.6299752 86.9049329,12.9577081 C86.9153989,13.9522161 86.4077946,14.755572 85.4109016,15.0319677 L87.2110654,18.6276955 L85.4841641,18.6276955 L83.945652,15.3471105 L82.5955291,15.3471105 L82.5955291,18.6276955 L81.0387014,18.6276955 Z" id="Fill-14" fill="#090909"></path>
                    <path d="M93.3501995,10.5716637 L94.9070272,10.5716637 L94.9070272,15.6165318 C94.9070272,17.9697703 93.4365446,18.7421285 91.7750562,18.7421285 C90.1135678,18.7421285 88.6404687,17.9697703 88.6404687,15.6165318 L88.6404687,10.5716637 L90.210379,10.5716637 L90.210379,15.6811102 C90.210379,16.988178 90.7232163,17.4428102 91.7750562,17.4428102 C92.8268961,17.4428102 93.3501995,16.988178 93.3501995,15.6811102 L93.3501995,10.5716637 Z" id="Fill-16" fill="#090909"></path>
                    <path d="M100.908533,12.9137947 C100.680896,12.2344295 100.194223,11.7539658 99.4275839,11.7539658 C98.3862101,11.7539658 97.758246,12.71231 97.758246,14.6005837 C97.7294643,16.4862743 98.299865,17.4420353 99.4694482,17.4420353 C100.175908,17.4420353 100.605017,17.1992203 101.070757,16.2512087 L102.509841,16.6283469 C102.025785,18.0258244 100.963479,18.7413536 99.4694482,18.7413536 C97.3945501,18.7413536 96.1961852,17.2328011 96.1961852,14.6005837 C96.1961852,11.9657831 97.3945501,10.4598138 99.4694482,10.4598138 C101.028892,10.4598138 101.936824,11.1495116 102.321452,12.5779868 L100.908533,12.9137947 Z" id="Fill-18" fill="#090909"></path>
                    <polygon id="Fill-20" fill="#090909" points="108.816956 10.5577147 108.816956 11.8544499 106.687111 11.8544499 106.687111 18.6300203 105.12505 18.6300203 105.12505 11.8544499 102.984739 11.8544499 102.984739 10.5577147"></polygon>
                    <mask id="mask-2" fill="white">
                        <use xlink:href="#path-1"></use>
                    </mask>
                    <g id="Clip-23"></g>
                    <polygon id="Fill-22" fill="#090909" mask="url(#mask-2)" points="110.142745 18.6300203 111.702189 18.6300203 111.702189 10.5706304 110.142745 10.5706304"></polygon>
                    <path d="M116.574406,11.7534492 C115.297545,11.7534492 114.711445,12.7143765 114.711445,14.6000671 C114.687897,16.4857577 115.284463,17.4441018 116.574406,17.4441018 C117.84865,17.4441018 118.437366,16.4857577 118.437366,14.6000671 C118.437366,12.7143765 117.84865,11.7534492 116.574406,11.7534492 M116.574406,18.740837 C114.34775,18.740837 113.149385,17.2322845 113.149385,14.6000671 C113.149385,11.9652665 114.34775,10.4592972 116.574406,10.4592972 C118.801062,10.4592972 120.002043,11.9652665 120.002043,14.6000671 C120.002043,17.2322845 118.801062,18.740837 116.574406,18.740837" id="Fill-24" fill="#090909" mask="url(#mask-2)"></path>
                    <polygon id="Fill-25" fill="#090909" mask="url(#mask-2)" points="121.268437 18.6287288 121.268437 10.571922 122.890678 10.571922 126.106378 16.0610898 126.124693 16.0610898 126.124693 10.571922 127.592559 10.571922 127.592559 18.6287288 126.088062 18.6287288 122.757236 12.8889966 122.733687 12.8889966 122.733687 18.6287288"></polygon>
                    <polygon id="Fill-26" fill="#090909" mask="url(#mask-2)" points="133.976599 18.7410953 135.541277 18.7410953 135.541277 10.6842885 133.976599 10.6842885"></polygon>
                    <polygon id="Fill-27" fill="#090909" mask="url(#mask-2)" points="137.560181 18.7410953 137.560181 10.6817053 139.190272 10.6817053 142.403355 16.1734563 142.42167 16.1734563 142.42167 10.6817053 143.894769 10.6817053 143.894769 18.7410953 142.390272 18.7410953 139.054213 13.0039462 139.033281 13.0039462 139.033281 18.7410953"></polygon>
                    <path d="M147.247051,17.4469432 L148.291041,17.4469432 C150.075506,17.4469432 150.491532,16.1527912 150.491532,14.7139834 C150.491532,13.2725925 150.075506,11.9810236 148.291041,11.9810236 L147.247051,11.9810236 L147.247051,17.4469432 Z M145.68499,10.6842885 L148.393086,10.6842885 C150.551712,10.6842885 152.040511,11.8673656 152.050977,14.7139834 C152.040511,17.555435 150.551712,18.7410953 148.393086,18.7410953 L145.68499,18.7410953 L145.68499,10.6842885 Z" id="Fill-28" fill="#090909" mask="url(#mask-2)"></path>
                    <path d="M157.99675,10.6827386 L159.561427,10.6827386 L159.561427,15.7301899 C159.561427,18.0834284 158.088328,18.8506203 156.424223,18.8506203 C154.767968,18.8506203 153.297485,18.0834284 153.297485,15.7301899 L153.297485,10.6827386 L154.85693,10.6827386 L154.85693,15.7947683 C154.85693,17.0992529 155.375,17.5564683 156.424223,17.5564683 C157.476063,17.5564683 157.99675,17.0992529 157.99675,15.7947683 L157.99675,10.6827386 Z" id="Fill-29" fill="#090909" mask="url(#mask-2)"></path>
                    <path d="M165.240578,12.8254514 C165.005091,12.200332 164.521036,11.7766974 163.780561,11.7766974 C163.102883,11.7766974 162.618828,12.0453438 162.618828,12.6704631 C162.618828,14.055025 166.823571,13.7605473 166.823571,16.3746827 C166.823571,18.0304741 165.771731,18.8493287 163.963717,18.8493287 C162.629294,18.8493287 161.375982,18.1131345 160.915475,16.9429731 L162.205418,16.3875984 C162.574347,17.1470409 163.063636,17.6481697 163.9768,17.6481697 C164.756522,17.6481697 165.355705,17.3562751 165.355705,16.5735843 C165.355705,14.992704 161.150962,15.3026805 161.150962,12.8254514 C161.150962,11.3840605 162.372875,10.5703721 163.780561,10.5703721 C165.094053,10.5703721 166.179907,11.2187397 166.663963,12.3914842 L165.240578,12.8254514 Z" id="Fill-30" fill="#090909" mask="url(#mask-2)"></path>
                    <polygon id="Fill-31" fill="#090909" mask="url(#mask-2)" points="173.470832 10.6726644 173.470832 11.9668164 171.338371 11.9668164 171.338371 18.7423868 169.773694 18.7423868 169.773694 11.9668164 167.638616 11.9668164 167.638616 10.6726644"></polygon>
                    <path d="M176.136017,14.2092383 L177.289901,14.2092383 C178.514431,14.2092383 178.88336,13.8295171 178.88336,13.0726577 C178.88336,12.3157983 178.422853,11.9334939 177.564635,11.9334939 L176.136017,11.9334939 L176.136017,14.2092383 Z M174.576573,18.740062 L174.576573,10.6832552 L177.834136,10.6832552 C179.686631,10.6832552 180.432338,11.7449249 180.442804,13.0726577 C180.450654,14.0671657 179.948282,14.8705216 178.948773,15.1495005 L180.751553,18.740062 L179.024652,18.740062 L177.48614,15.459477 L176.136017,15.459477 L176.136017,18.740062 L174.576573,18.740062 Z" id="Fill-32" fill="#090909" mask="url(#mask-2)"></path>
                    <polygon id="Fill-33" fill="#090909" mask="url(#mask-2)" points="184.177097 13.8736887 185.576934 10.6835135 187.204408 10.6835135 184.959436 15.5268969 184.959436 18.7403203 183.394759 18.7403203 183.394759 15.5268969 181.14717 10.6835135 182.774644 10.6835135"></polygon>
                    <path d="M196.77929,13.0274528 C196.55427,12.3455044 196.070214,11.8676239 195.300958,11.8676239 C194.256968,11.8676239 193.623771,12.825968 193.623771,14.7142418 C193.602839,16.5999324 194.170623,17.5556933 195.345439,17.5556933 C196.049282,17.5556933 196.475774,17.3128784 196.941515,16.3648668 L198.383215,16.7420049 C197.89916,18.1394825 196.836854,18.8498454 195.345439,18.8498454 C193.267924,18.8498454 192.06171,17.3464592 192.06171,14.7142418 C192.06171,12.0768581 193.267924,10.5708887 195.345439,10.5708887 C196.9075,10.5708887 197.810198,11.2605865 198.19221,12.6916449 L196.77929,13.0274528 Z" id="Fill-34" fill="#090909" mask="url(#mask-2)"></path>
                    <path d="M202.400878,11.8658157 C201.121401,11.8658157 200.532684,12.826743 200.532684,14.7150167 C200.509136,16.6007073 201.110935,17.5564683 202.400878,17.5564683 C203.675121,17.5564683 204.263838,16.6007073 204.263838,14.7150167 C204.263838,12.826743 203.675121,11.8658157 202.400878,11.8658157 M202.400878,18.8506203 C200.174221,18.8506203 198.975857,17.3472341 198.975857,14.7150167 C198.975857,12.077633 200.174221,10.5716637 202.400878,10.5716637 C204.624917,10.5716637 205.823282,12.077633 205.823282,14.7150167 C205.823282,17.3472341 204.624917,18.8506203 202.400878,18.8506203" id="Fill-35" fill="#090909" mask="url(#mask-2)"></path>
                    <path d="M211.824264,10.6827386 L213.383708,10.6827386 L213.383708,15.7301899 C213.383708,18.0834284 211.913226,18.8506203 210.254354,18.8506203 C208.592865,18.8506203 207.119766,18.0834284 207.119766,15.7301899 L207.119766,10.6827386 L208.681827,10.6827386 L208.681827,15.7947683 C208.681827,17.0992529 209.199897,17.5564683 210.254354,17.5564683 C211.303577,17.5564683 211.824264,17.0992529 211.824264,15.7947683 L211.824264,10.6827386 Z" id="Fill-36" fill="#090909" mask="url(#mask-2)"></path>
                    <polygon id="Fill-37" fill="#090909" mask="url(#mask-2)" points="215.248238 18.7410953 215.248238 10.6817053 216.880945 10.6817053 220.088795 16.1734563 220.107111 16.1734563 220.107111 10.6817053 221.58021 10.6817053 221.58021 18.7410953 220.075712 18.7410953 216.739653 13.0039462 216.718721 13.0039462 216.718721 18.7410953"></polygon>
                    <path d="M227.543776,13.0274528 C227.318755,12.3455044 226.832083,11.8676239 226.06806,11.8676239 C225.02407,11.8676239 224.393489,12.825968 224.393489,14.7142418 C224.36994,16.5999324 224.940341,17.5556933 226.107308,17.5556933 C226.813767,17.5556933 227.245493,17.3128784 227.706,16.3648668 L229.150317,16.7420049 C228.663645,18.1394825 227.603956,18.8498454 226.107308,18.8498454 C224.03241,18.8498454 222.828812,17.3464592 222.828812,14.7142418 C222.828812,12.0768581 224.03241,10.5708887 226.107308,10.5708887 C227.669368,10.5708887 228.5773,11.2605865 228.959311,12.6916449 L227.543776,13.0274528 Z" id="Fill-38" fill="#090909" mask="url(#mask-2)"></path>
                    <polygon id="Fill-39" fill="#090909" mask="url(#mask-2)" points="230.499917 18.7410953 232.054128 18.7410953 232.054128 10.6842885 230.499917 10.6842885"></polygon>
                    <polygon id="Fill-40" fill="#090909" mask="url(#mask-2)" points="234.041634 18.7410953 234.041634 10.6817053 235.606312 10.6817053 235.606312 17.4469432 239.156925 17.4469432 239.156925 18.7410953"></polygon>
                    <path d="M58.3084938,36.0359778 L51.7593514,36.0359778 C49.7289341,36.0075633 48.2950827,35.4470224 47.4918119,34.3672708 C48.3081653,32.5849057 48.7398906,30.6862994 48.7765218,28.7179484 C48.7765218,28.4415527 48.6116813,28.2736487 48.3133983,28.260733 L46.4896859,28.260733 L48.6247638,24.2646188 C48.650929,24.2181224 48.650929,24.1612933 48.6195308,24.1147968 L48.261068,23.574921 C48.2349028,23.5335908 48.185189,23.5051763 48.1328586,23.5051763 L44.8229644,23.5051763 C44.7366194,23.5051763 44.6685899,23.574921 44.6685899,23.6575815 L44.6685899,24.566846 C44.6685899,24.6495064 44.7366194,24.7192511 44.8229644,24.7192511 L47.0313049,24.7192511 L44.8936104,28.710199 C44.8700617,28.7566955 44.8700617,28.8161076 44.8988434,28.8626041 L45.2416072,29.4024799 C45.2730054,29.4438101 45.3201027,29.4722246 45.3750496,29.4722246 L47.4996615,29.4722246 C47.4604137,30.7508779 47.193529,31.9442875 46.7173228,33.021456 C46.4111903,32.3730884 46.1390726,31.6110627 45.9062025,30.7508779 C45.8957365,30.7095477 45.8669548,30.6759669 45.8355566,30.6553018 C45.7989253,30.6372198 45.7544445,30.6320535 45.7151968,30.6423861 L44.911926,30.8748685 C44.8334305,30.8955336 44.7863332,30.9807771 44.8124984,31.0608544 C45.1631117,32.290428 45.60007,33.359847 46.0972083,34.2432802 C45.6524004,34.9949733 45.058451,35.7931628 44.3179766,36.6326826 C44.2682628,36.6920948 44.2734958,36.7825046 44.3284427,36.8393337 L45.0846161,37.5806942 C45.1160144,37.6065256 45.1552621,37.6220244 45.1945099,37.6220244 L45.2023594,37.6220244 C45.2416072,37.6194413 45.286088,37.6013593 45.3096366,37.5677785 C45.9009695,36.8806639 46.4373555,36.152219 46.9187947,35.3979428 C47.654036,36.2529614 48.4625398,36.7747552 49.3181409,36.9555749 C50.1004795,37.1208957 51.0319596,37.221638 52.086416,37.2526357 L58.0834733,37.2526357 C58.1541193,37.2526357 58.2195322,37.2061392 58.2378478,37.1363945 L58.4576352,36.2245469 C58.4707178,36.1780504 58.4602518,36.1315539 58.4288536,36.0928068 C58.3974553,36.0566429 58.3529746,36.0359778 58.3084938,36.0359778" id="Fill-41" fill="#090909" mask="url(#mask-2)"></path>
                    <path d="M53.8876264,26.1004549 L56.2110936,26.1004549 L56.2110936,25.0258695 L53.8876264,25.0258695 L53.8876264,26.1004549 Z M53.8876264,28.3813656 L56.2110936,28.3813656 L56.2110936,27.3067802 L53.8876264,27.3067802 L53.8876264,28.3813656 Z M58.3958854,26.1004549 L57.3911429,26.1004549 L57.3911429,24.2431788 C57.3911429,23.9745325 57.2289188,23.8117948 56.9541845,23.8117948 L53.8876264,23.8117948 L53.8876264,22.9180291 C53.8876264,22.8302024 53.819597,22.7630408 53.7358684,22.7630408 L52.8593352,22.7630408 C52.7703736,22.7630408 52.7023441,22.8302024 52.7023441,22.9180291 L52.7023441,23.8117948 L49.7849275,23.8117948 C49.695966,23.8117948 49.630553,23.8789564 49.630553,23.9616168 L49.630553,24.8734644 C49.630553,24.9612911 49.695966,25.0258695 49.7849275,25.0258695 L52.7023441,25.0258695 L52.7023441,26.1004549 L48.7566363,26.1004549 C48.6755243,26.1004549 48.6048783,26.1650333 48.6048783,26.2502769 L48.6048783,27.1569582 C48.6048783,27.2422018 48.6755243,27.3093634 48.7566363,27.3093634 L52.7023441,27.3093634 L52.7023441,28.3813656 L49.9576177,28.3813656 C49.8765056,28.3813656 49.8084762,28.4511103 49.8084762,28.5337707 L49.8084762,29.4430352 C49.8084762,29.5256956 49.8765056,29.5954403 49.9576177,29.5954403 L52.7023441,29.5954403 L52.7023441,30.6054472 L49.5285089,30.6054472 C49.4473968,30.6054472 49.3767509,30.6726088 49.3767509,30.7578523 L49.3767509,31.6671168 C49.3767509,31.7523604 49.4473968,31.819522 49.5285089,31.819522 L52.7023441,31.819522 L52.7023441,32.7675335 L48.8796126,32.7675335 C48.7932675,32.7675335 48.7226216,32.8346951 48.7226216,32.9173555 L48.7226216,33.8292032 C48.7226216,33.9144467 48.7932675,33.9816083 48.8796126,33.9816083 L52.7023441,33.9816083 L52.7023441,35.4049172 C52.7023441,35.4849945 52.7703736,35.5547392 52.8593352,35.5547392 L53.7358684,35.5547392 C53.819597,35.5547392 53.8876264,35.4849945 53.8876264,35.4049172 L53.8876264,33.9816083 L58.1603989,33.9816083 C58.2441274,33.9816083 58.3147734,33.9144467 58.3147734,33.8292032 L58.3147734,32.9173555 C58.3147734,32.8346951 58.2441274,32.7675335 58.1603989,32.7675335 L53.8876264,32.7675335 L53.8876264,31.819522 L57.5088861,31.819522 C57.5926147,31.819522 57.6606441,31.7523604 57.6606441,31.6671168 L57.6606441,30.7578523 C57.6606441,30.6726088 57.5926147,30.6054472 57.5088861,30.6054472 L53.8876264,30.6054472 L53.8876264,29.5954403 L56.9541845,29.5954403 C57.2289188,29.5954403 57.3911429,29.4301195 57.3911429,29.1511406 L57.3911429,27.3093634 L58.3958854,27.3093634 C58.479614,27.3093634 58.5502599,27.2422018 58.5502599,27.1569582 L58.5502599,26.2502769 C58.5502599,26.1650333 58.479614,26.1004549 58.3958854,26.1004549 L58.3958854,26.1004549 Z" id="Fill-42" fill="#090909" mask="url(#mask-2)"></path>
                    <path d="M69.5665821,24.3878345 C70.0715699,24.7003942 70.6916844,25.2041061 71.463557,25.9299678 C71.4871056,25.9557992 71.5289699,25.9687148 71.5682177,25.9687148 C71.5682177,25.9687148 71.5760672,25.9687148 71.5786837,25.9687148 C71.6179315,25.9661317 71.6597958,25.9454666 71.6885775,25.9093027 L72.2511286,25.183441 C72.2982259,25.1240288 72.2903764,25.0362021 72.2354295,24.9845393 C71.5211204,24.3000078 70.851292,23.7627152 70.249493,23.3881602 C70.1814636,23.34683 70.0898855,23.3649119 70.0454047,23.4320735 L69.5194847,24.1734341 C69.4985526,24.2070149 69.4933196,24.2483451 69.4959361,24.2896753 C69.5064022,24.3310055 69.5325673,24.3671694 69.5665821,24.3878345" id="Fill-43" fill="#090909" mask="url(#mask-2)"></path>
                    <path d="M73.0543994,27.3419109 C73.1119628,27.3987399 73.2061574,27.4013231 73.2637208,27.3496603 C73.7425434,26.9441077 74.1716522,26.4326464 74.5484307,25.8307753 L77.4344491,25.8307753 L77.4344491,27.812042 L72.9575883,27.812042 C72.8738597,27.812042 72.8032138,27.8817867 72.8032138,27.9644471 L72.8032138,28.8762948 C72.8032138,28.9589552 72.8738597,29.0261167 72.9575883,29.0261167 L83.2457337,29.0261167 C83.3320787,29.0261167 83.4001082,28.9589552 83.4001082,28.8762948 L83.4001082,27.9644471 C83.4001082,27.8817867 83.3320787,27.812042 83.2457337,27.812042 L78.6171148,27.812042 L78.6171148,25.8307753 L82.5916044,25.8307753 C82.6779494,25.8307753 82.7459789,25.7610306 82.7459789,25.6783702 L82.7459789,24.7665225 C82.7459789,24.6838621 82.6779494,24.6167005 82.5916044,24.6167005 L78.6171148,24.6167005 L78.6171148,23.1003986 C78.6171148,23.0177382 78.5490854,22.9479935 78.4627403,22.9479935 L77.5862071,22.9479935 C77.5024785,22.9479935 77.4344491,23.0177382 77.4344491,23.1003986 L77.4344491,24.6167005 L75.126681,24.6167005 L75.4485126,23.6402744 C75.4615952,23.6041105 75.4563621,23.5627803 75.4380465,23.5240332 C75.4171144,23.4878693 75.3830997,23.4620379 75.3412354,23.4491222 L74.4934838,23.219223 C74.4123718,23.1959747 74.3286432,23.2424712 74.3077111,23.3225485 C74.064375,24.1491526 73.8184224,24.7639394 73.5855524,25.1488269 C73.2637208,25.6267074 72.8686267,26.0761734 72.4081197,26.4765597 C72.3741049,26.5023911 72.3557893,26.5437213 72.3531728,26.5876347 C72.3531728,26.6263817 72.3688719,26.6651288 72.4002701,26.6961264 L73.0543994,27.3419109 Z" id="Fill-44" fill="#090909" mask="url(#mask-2)"></path>
                    <path d="M75.0526335,33.8524514 L81.0575404,33.8524514 L81.0575404,31.388138 L75.0526335,31.388138 L75.0526335,33.8524514 Z M74.1420856,30.1740632 C74.0269588,30.1740632 73.8935164,30.2412248 73.8699678,30.4452927 L73.8699678,34.7746316 C73.8699678,34.950285 73.977245,35.0665262 74.1420856,35.0665262 L81.9550058,35.0665262 C82.1250794,35.0665262 82.2428226,34.950285 82.2428226,34.7746316 L82.2428226,30.4452927 C82.2428226,30.2980538 82.143395,30.1947283 81.9550058,30.1740632 L74.1420856,30.1740632 Z" id="Fill-45" fill="#090909" mask="url(#mask-2)"></path>
                    <path d="M83.3059135,36.0713668 L74.9723065,36.1824417 C73.376231,36.1591935 72.2432791,35.7174769 71.6100819,34.8779571 C72.2511286,33.488229 72.5441786,32.5763813 72.5781933,30.9877516 C72.5781933,30.7501029 72.4290518,30.6002809 72.1726331,30.5899484 L70.8355929,30.5899484 L72.2929929,27.1879559 C72.3113085,27.1414594 72.308692,27.0872135 72.2799103,27.0458833 L71.9214475,26.5060075 C71.8952823,26.4620942 71.8455685,26.4362628 71.7958547,26.4362628 L69.399125,26.4362628 C69.3101634,26.4362628 69.2447504,26.5034244 69.2447504,26.5886679 L69.2447504,27.4875999 C69.2447504,27.5728434 69.3101634,27.640005 69.399125,27.640005 L70.7832625,27.640005 L69.3101634,31.0678289 C69.2918478,31.1143253 69.2944643,31.1659881 69.3206294,31.2073183 L69.6633932,31.7497772 C69.6921749,31.7936906 69.7392722,31.819522 69.794219,31.819522 L71.3562798,31.819522 C71.2987164,32.8114469 70.8722241,34.6713061 68.8339573,36.8953877 C68.8051756,36.9263854 68.792093,36.9651325 68.797326,37.0064627 C68.797326,37.050376 68.8182582,37.0865399 68.8548894,37.1149545 L69.5927472,37.7013267 C69.6241454,37.7271581 69.6555436,37.7349075 69.6921749,37.7349075 C69.7340392,37.7349075 69.7811365,37.7168256 69.8046851,37.6806616 C70.2625756,37.1537015 70.6838349,36.5879943 71.0710794,35.9861232 C71.6519462,36.6499897 72.2903764,37.0607086 72.9732874,37.2027811 C73.6012515,37.3371043 74.3443424,37.4145984 75.1816278,37.4378467 L83.0416453,37.4378467 C83.1175243,37.4378467 83.1777042,37.3913502 83.1934033,37.3216055 L83.4576715,36.2599358 C83.4681376,36.2134394 83.4576715,36.1669429 83.4262733,36.1281958 C83.3974916,36.0920319 83.3399283,36.0713668 83.3059135,36.0713668" id="Fill-46" fill="#090909" mask="url(#mask-2)"></path>
                    <path d="M99.1685487,28.0117185 L98.527502,26.6943183 L102.635434,26.6943183 L102.049334,28.0117185 L99.1685487,28.0117185 Z M107.593734,35.6423076 C105.463889,35.0740173 103.679424,34.2861603 102.274355,33.2994016 L107.284985,33.2994016 C107.37133,33.2994016 107.436743,33.23224 107.436743,33.1495796 L107.436743,32.237732 C107.436743,32.1550716 107.37133,32.08791 107.284985,32.08791 L101.290544,32.08791 L101.290544,31.263889 L106.392753,31.263889 C106.479098,31.263889 106.549744,31.1967274 106.549744,31.114067 L106.549744,30.2022194 C106.549744,30.1169758 106.479098,30.0498143 106.392753,30.0498143 L101.290544,30.0498143 L101.290544,29.2257933 L106.808779,29.2257933 C106.895124,29.2257933 106.963153,29.1560486 106.963153,29.0759713 L106.963153,28.1641237 C106.963153,28.0788801 106.895124,28.0117185 106.808779,28.0117185 L103.341894,28.0117185 L103.896595,26.6943183 L107.342548,26.6943183 C107.43151,26.6943183 107.496923,26.6271567 107.496923,26.5444963 L107.496923,25.6326486 C107.496923,25.5499882 107.43151,25.4828266 107.342548,25.4828266 L104.838541,25.4828266 C105.280733,24.8783724 105.62088,24.3204146 105.874682,23.8167027 C105.908697,23.7521243 105.887765,23.6668807 105.822352,23.6255505 L105.08711,23.1295881 C105.045246,23.108923 105.000765,23.0985904 104.958901,23.108923 C104.91442,23.1192555 104.880406,23.1502532 104.856857,23.1890003 C104.618754,23.6875459 104.21581,24.3126652 103.658492,25.0488595 C103.603545,25.1160211 103.616628,25.2115972 103.68989,25.2580936 L103.980324,25.4828266 L102.598803,25.4828266 L102.598803,23.0391783 C102.598803,22.9565179 102.528157,22.8867731 102.444428,22.8867731 L101.565278,22.8867731 C101.48155,22.8867731 101.41352,22.9565179 101.41352,23.0391783 L101.41352,25.4828266 L100.039849,25.4828266 L100.039849,23.0391783 C100.039849,22.9565179 99.9770525,22.8867731 99.8907074,22.8867731 L99.0115577,22.8867731 C98.9278291,22.8867731 98.8597997,22.9565179 98.8597997,23.0391783 L98.8597997,25.4828266 L97.5332255,25.4828266 L97.7556294,25.3459203 C97.8210424,25.3071733 97.8472075,25.2219297 97.8131928,25.152185 C97.4311813,24.3746605 97.070102,23.7598737 96.701173,23.2716607 C96.6514592,23.2096654 96.5598811,23.1941665 96.4944682,23.240663 L95.7409112,23.7495412 C95.7121296,23.7727894 95.6885809,23.8115365 95.6833479,23.8502835 C95.6754983,23.8890306 95.6833479,23.9329439 95.7068965,23.9639416 C95.9763978,24.3229978 96.2851468,24.834459 96.6226775,25.4828266 L93.9616796,25.4828266 C93.8753345,25.4828266 93.8099216,25.5499882 93.8099216,25.6326486 L93.8099216,26.5444963 C93.8099216,26.6271567 93.8753345,26.6943183 93.9616796,26.6943183 L97.2113939,26.6943183 L97.8733727,28.0117185 L94.4928326,28.0117185 C94.409104,28.0117185 94.3436911,28.0788801 94.3436911,28.1641237 L94.3436911,29.0759713 C94.3436911,29.1560486 94.409104,29.2257933 94.4928326,29.2257933 L100.105262,29.2257933 L100.105262,30.0498143 L94.9114753,30.0498143 C94.8277468,30.0498143 94.7623338,30.1169758 94.7623338,30.2022194 L94.7623338,31.114067 C94.7623338,31.1967274 94.8277468,31.263889 94.9114753,31.263889 L100.105262,31.263889 L100.105262,32.08791 L94.1971661,32.08791 C94.1160541,32.08791 94.0454081,32.1550716 94.0454081,32.237732 L94.0454081,33.1495796 C94.0454081,33.23224 94.1160541,33.2994016 94.1971661,33.2994016 L99.139767,33.2994016 C97.541075,34.430816 95.7513773,35.2290055 93.8282372,35.6733053 C93.7732904,35.6836378 93.7418922,35.7120523 93.72096,35.7533825 C93.7000279,35.7921296 93.7000279,35.8386261 93.715727,35.8799563 L94.100355,36.7298086 C94.1343697,36.7943871 94.2050157,36.830551 94.2756617,36.8176353 C96.0365777,36.4611623 97.9989655,35.5260664 100.105262,34.0330127 L100.105262,37.6261574 C100.105262,37.7088178 100.178524,37.7785626 100.259636,37.7785626 L101.13617,37.7785626 C101.219898,37.7785626 101.290544,37.7088178 101.290544,37.6261574 L101.290544,34.0252633 C103.174436,35.3090828 105.113276,36.2260967 107.054731,36.7530569 C107.122761,36.7711388 107.19079,36.7401412 107.224805,36.6781459 L107.687929,35.8618743 C107.703757,35.8205441 107.711477,35.7714645 107.693162,35.7301343 C107.672229,35.6888041 107.635598,35.6552233 107.593734,35.6423076 L107.593734,35.6423076 Z" id="Fill-47" fill="#090909" mask="url(#mask-2)"></path>
                    <path d="M119.494177,36.0352029 L121.098102,36.0352029 L121.098102,33.0516787 L119.494177,33.0516787 L119.494177,36.0352029 Z M121.995568,31.8401871 L118.57578,31.8401871 C118.460653,31.8401871 118.329827,31.9073486 118.303662,32.1165828 L118.303662,36.9599662 C118.303662,37.1769498 118.452803,37.2518608 118.57578,37.2518608 L121.995568,37.2518608 C122.168258,37.2518608 122.280768,37.1382027 122.280768,36.9599662 L122.280768,32.1165828 C122.280768,31.9977585 122.207505,31.8660184 121.995568,31.8401871 L121.995568,31.8401871 Z" id="Fill-48" fill="#090909" mask="url(#mask-2)"></path>
                    <path d="M131.782912,34.8389517 L130.922077,34.5780548 C130.877597,34.5651391 130.827883,34.5703054 130.791252,34.5987199 C130.749387,34.6245513 130.725839,34.6684646 130.725839,34.7149611 L130.64996,35.9187033 C130.636877,36.0194457 130.618561,36.0659422 130.602862,36.0891904 C130.563615,36.0685253 130.472036,36.00653 130.304579,35.8205441 C130.18422,35.6991366 130.045544,35.5079844 129.901636,35.2548369 C130.388308,34.73046 130.8148,34.2138324 131.178496,33.7152868 C131.22821,33.6507084 131.212511,33.5602985 131.147098,33.5060526 L130.451104,32.9661768 C130.383075,32.9170972 130.28888,32.9274298 130.233933,32.9920082 L129.362633,34.0795092 C129.205642,33.6481252 129.093132,33.2477389 129.019869,32.8680176 L131.542192,32.8680176 C131.62592,32.8680176 131.69395,32.800856 131.69395,32.7156125 L131.69395,31.806348 C131.69395,31.7211044 131.62592,31.6539428 131.542192,31.6539428 L128.836713,31.6539428 L128.724203,29.8224981 C128.724203,29.7424209 128.656174,29.6778424 128.572445,29.6778424 L127.682829,29.6778424 C127.596484,29.6778424 127.528455,29.7475871 127.528455,29.8302475 C127.528455,30.383039 127.565086,30.9952427 127.630499,31.6539428 L125.668111,31.6539428 L125.668111,30.8299219 L126.630989,30.6103552 C126.714718,30.5922732 126.767048,30.5147791 126.748733,30.4321187 L126.568193,29.5538518 C126.56296,29.5099385 126.531562,29.4737745 126.497547,29.4531094 C126.463532,29.4324443 126.416435,29.4246949 126.374571,29.4376106 C125.474489,29.6804256 124.328454,29.8457464 122.965249,29.9258236 C122.920768,29.9284068 122.88152,29.9490719 122.852739,29.9852358 C122.823957,30.0188166 122.816107,30.0627299 122.823957,30.1066433 L123.004497,31.0159078 C123.017579,31.0934019 123.093458,31.1476478 123.166721,31.1398984 L124.485445,31.000409 L124.485445,31.6539428 L122.680048,31.6539428 C122.593703,31.6539428 122.525674,31.7211044 122.525674,31.806348 L122.525674,32.7156125 C122.525674,32.800856 122.593703,32.8680176 122.680048,32.8680176 L124.485445,32.8680176 L124.485445,34.0020151 L122.750694,34.3714038 C122.700981,34.3843195 122.669582,34.4075677 122.64865,34.4488979 C122.625102,34.487645 122.617252,34.5341415 122.635568,34.5728885 L122.965249,35.4408228 C122.988797,35.5105676 123.064676,35.5544809 123.140555,35.5363989 L124.485445,35.236755 L124.488062,36.2958415 L124.451431,36.4714948 C124.372935,36.5954854 124.294439,36.6084011 124.252575,36.6109843 C123.988307,36.5799866 123.624611,36.4792442 123.179803,36.3113403 C123.127473,36.2932583 123.080376,36.2984246 123.035895,36.3294223 C122.99403,36.3552536 122.973098,36.4017501 122.973098,36.4534129 L122.973098,37.393675 C122.973098,37.4608366 123.012346,37.5202488 123.080376,37.5383307 C123.606295,37.6984853 124.056336,37.7811457 124.409566,37.7811457 C124.705233,37.7811457 124.948569,37.7268998 125.142191,37.6080755 C125.482338,37.3652605 125.655028,37.0113706 125.668111,36.5593215 L125.668111,34.8906145 L127.245871,34.3249073 C127.285119,34.3094085 127.3139,34.2784108 127.334832,34.2422469 C127.350531,34.2034998 127.350531,34.1570034 127.332216,34.1208394 L126.944971,33.3019847 C126.913573,33.2296569 126.821995,33.1960761 126.748733,33.2244906 L125.668111,33.6532915 L125.668111,32.8680176 L127.818888,32.8680176 C127.936631,33.6222938 128.148569,34.3249073 128.454702,34.9706918 L128.407604,35.0042726 C127.680213,35.5493146 126.952821,35.9755324 126.235895,36.2674269 C126.196647,36.2855089 126.167866,36.3165066 126.154783,36.3578368 C126.139084,36.399167 126.146934,36.4456635 126.167866,36.4818274 L126.625756,37.2671013 C126.662387,37.3394291 126.756582,37.3652605 126.827228,37.3290966 C127.73516,36.9002957 128.475634,36.4689117 129.019869,36.0452771 C129.708013,37.1146961 130.299346,37.6416563 130.846198,37.6519888 C131.003189,37.63649 131.147098,37.5770778 131.259608,37.4660029 C131.518643,37.1792746 131.727965,36.3759187 131.890189,35.0016894 C131.898038,34.9293616 131.856174,34.8622 131.782912,34.8389517" id="Fill-49" fill="#090909" mask="url(#mask-2)"></path>
                    <path d="M118.457513,28.8566629 L121.981962,28.8566629 C122.06569,28.8566629 122.13372,28.7869182 122.13372,28.7068409 L122.13372,27.7924101 C122.13372,27.7097497 122.06569,27.640005 121.981962,27.640005 L118.457513,27.640005 C118.373784,27.640005 118.303139,27.7097497 118.303139,27.7924101 L118.303139,28.7068409 C118.303139,28.7869182 118.373784,28.8566629 118.457513,28.8566629" id="Fill-50" fill="#090909" mask="url(#mask-2)"></path>
                    <path d="M118.304185,30.7410619 C118.304185,30.8263055 118.372215,30.8934671 118.45856,30.8934671 L122.037955,30.8934671 C122.126917,30.8934671 122.19233,30.8263055 122.19233,30.7410619 L122.19233,29.8292143 C122.19233,29.7465539 122.126917,29.6793923 122.037955,29.6793923 L118.45856,29.6793923 C118.372215,29.6793923 118.304185,29.7465539 118.304185,29.8292143 L118.304185,30.7410619 Z" id="Fill-51" fill="#090909" mask="url(#mask-2)"></path>
                    <path d="M122.734995,28.1982211 C122.651267,28.1982211 122.585854,28.2653827 122.585854,28.3480431 L122.585854,29.2598907 C122.585854,29.3425511 122.651267,29.4122958 122.734995,29.4122958 L129.723713,29.4122958 L129.328618,29.7997665 C129.294604,29.828181 129.281521,29.8720944 129.281521,29.9108414 C129.281521,29.9521716 129.299837,29.9935019 129.331235,30.0193332 C129.632134,30.295729 129.990597,30.7064479 130.396157,31.2463237 C130.422323,31.2824876 130.46157,31.3031527 130.506051,31.308319 L130.519134,31.308319 C130.555765,31.308319 130.592396,31.2954033 130.621178,31.2695719 L131.304089,30.6677008 C131.366885,30.6160381 131.372118,30.5282114 131.330254,30.4662161 C131.011039,30.0425815 130.720606,29.696441 130.440638,29.4122958 L131.484629,29.4122958 C131.570974,29.4122958 131.636387,29.3425511 131.636387,29.2598907 L131.636387,28.3480431 C131.636387,28.2653827 131.570974,28.1982211 131.484629,28.1982211 L127.688062,28.1982211 L127.688062,27.5576029 L131.126166,27.5576029 C131.209894,27.5576029 131.28054,27.4904413 131.28054,27.4051978 L131.28054,26.4959333 C131.28054,26.4132729 131.209894,26.3435281 131.126166,26.3435281 L127.688062,26.3435281 L127.688062,25.6434978 L131.424449,25.6434978 C131.510794,25.6434978 131.578823,25.5789193 131.578823,25.4936758 L131.578823,24.5844113 C131.578823,24.4991677 131.510794,24.4320062 131.424449,24.4320062 L129.443745,24.4320062 L129.83099,23.4013342 C129.862388,23.32384 129.82314,23.2411796 129.744645,23.210182 L128.928291,22.8692078 C128.889044,22.853709 128.844563,22.853709 128.800082,22.8717909 C128.766067,22.8872898 128.737286,22.9234537 128.724203,22.9647839 C128.603843,23.3445052 128.407604,23.8378845 128.13287,24.4320062 L125.940229,24.4320062 C125.68381,23.8378845 125.416925,23.3290063 125.152657,22.9260368 C125.10556,22.8588752 125.016598,22.8382101 124.948569,22.8795403 L124.171463,23.32384 C124.140065,23.3470883 124.111283,23.3806691 124.103434,23.4194161 C124.092968,23.4633295 124.098201,23.5020766 124.121749,23.5356573 C124.276124,23.7758892 124.440964,24.0755331 124.621504,24.4320062 L122.915535,24.4320062 C122.82919,24.4320062 122.766393,24.4991677 122.766393,24.5844113 L122.766393,25.4936758 C122.766393,25.5789193 122.82919,25.6434978 122.915535,25.6434978 L126.505396,25.6434978 L126.505396,26.3435281 L123.096075,26.3435281 C123.007113,26.3435281 122.939084,26.4132729 122.939084,26.4959333 L122.939084,27.4051978 C122.939084,27.4904413 123.007113,27.5576029 123.096075,27.5576029 L126.505396,27.5576029 L126.505396,28.1982211 L122.734995,28.1982211 Z" id="Fill-52" fill="#090909" mask="url(#mask-2)"></path>
                    <path d="M122.729762,26.543463 L122.729762,25.6316154 C122.729762,25.548955 122.653883,25.4817934 122.572771,25.4817934 L118.101143,25.4817934 C118.017415,25.4817934 117.952002,25.548955 117.952002,25.6316154 L117.952002,26.543463 C117.952002,26.6287066 118.017415,26.693285 118.101143,26.693285 L122.572771,26.693285 C122.653883,26.693285 122.729762,26.6287066 122.729762,26.543463" id="Fill-53" fill="#090909" mask="url(#mask-2)"></path>
                    <path d="M118.457513,24.7184761 L122.036908,24.7184761 C122.12587,24.7184761 122.1939,24.6513146 122.1939,24.566071 L122.1939,23.6568065 C122.1939,23.5741461 122.12587,23.5069845 122.036908,23.5069845 L118.457513,23.5069845 C118.373784,23.5069845 118.303139,23.5741461 118.303139,23.6568065 L118.303139,24.566071 C118.303139,24.6513146 118.373784,24.7184761 118.457513,24.7184761" id="Fill-54" fill="#090909" mask="url(#mask-2)"></path>
                    <path d="M153.841983,30.4207528 L151.918842,30.4207528 C152.162179,30.0022845 152.3715,29.6044813 152.54419,29.2273432 C152.575588,29.1601816 152.55204,29.0775212 152.481394,29.036191 L151.72522,28.5763925 C151.693822,28.5505611 151.644108,28.5453948 151.60486,28.5583105 C151.562996,28.5712262 151.526365,28.6022238 151.510666,28.6409709 C151.283029,29.1162683 150.940265,29.7155562 150.477142,30.4207528 L149.796847,30.4207528 L149.796847,28.5453948 L153.841983,28.5453948 L153.841983,30.4207528 Z M148.611565,30.4207528 L147.18033,30.4207528 L147.643453,29.9532049 C147.6984,29.8963759 147.6984,29.8085492 147.651303,29.749137 C147.253592,29.2738397 146.858498,28.8889521 146.48172,28.5996407 C146.418923,28.5505611 146.327345,28.5583105 146.269782,28.6177227 L145.681066,29.2841722 C145.652284,29.3151699 145.639201,29.3539169 145.644434,29.3952471 C145.644434,29.4391605 145.66275,29.4727413 145.699381,29.4985726 C145.963649,29.7155562 146.277632,30.0255328 146.628245,30.4207528 L144.448686,30.4207528 L144.448686,28.5453948 L148.611565,28.5453948 L148.611565,30.4207528 Z M154.734215,27.3339032 L143.538138,27.3339032 C143.425628,27.3339032 143.286952,27.4010648 143.26602,27.6102989 L143.26602,31.342933 C143.26602,31.5185864 143.370681,31.6348276 143.538138,31.6348276 L154.734215,31.6348276 C154.909522,31.6348276 155.022032,31.5185864 155.022032,31.342933 L155.022032,27.6102989 C155.022032,27.4888914 154.951386,27.3545683 154.734215,27.3339032 L154.734215,27.3339032 Z" id="Fill-55" fill="#090909" mask="url(#mask-2)"></path>
                    <path d="M145.219774,34.6170602 L153.011762,34.6170602 L153.011762,33.6096365 L145.219774,33.6096365 L145.219774,34.6170602 Z M145.219774,36.7197344 L153.011762,36.7197344 L153.011762,35.8337181 L145.219774,35.8337181 L145.219774,36.7197344 Z M153.903994,32.3981448 L144.309226,32.3981448 C144.157468,32.3981448 144.05804,32.4911378 144.039724,32.6693743 L144.039724,37.6367483 C144.039724,37.8537319 144.183633,37.9338091 144.309226,37.9338091 L153.903994,37.9338091 C154.079301,37.9338091 154.189194,37.8149848 154.189194,37.6367483 L154.189194,32.6693743 C154.189194,32.55055 154.121165,32.4188099 153.903994,32.3981448 L153.903994,32.3981448 Z" id="Fill-56" fill="#090909" mask="url(#mask-2)"></path>
                    <path d="M147.144745,25.5445636 C147.968948,25.120929 148.617844,24.7231258 149.073118,24.351154 C149.816209,24.7902874 150.585465,25.1880906 151.38612,25.5445636 L147.144745,25.5445636 Z M156.323487,25.94495 C156.299939,25.9036198 156.260691,25.8777884 156.210977,25.8674558 C153.848262,25.4722358 151.707951,24.7024607 149.847607,23.5762126 L149.894705,23.527133 C149.92087,23.4961353 149.931336,23.4548051 149.92872,23.4134749 C149.926103,23.3721447 149.905171,23.3333977 149.86854,23.3075663 L149.258891,22.8426015 C149.196095,22.7935219 149.104517,22.8038544 149.052186,22.8632666 C147.950633,24.1367535 145.663797,25.1751749 142.257091,25.9501163 C142.209994,25.9604488 142.175979,25.9862802 142.155047,26.0276104 C142.134115,26.0663575 142.131498,26.1128539 142.149814,26.151601 L142.489961,26.9988702 C142.510893,27.0608655 142.568457,27.0944463 142.628637,27.0944463 C142.644336,27.0944463 142.657418,27.0944463 142.670501,27.08928 C144.018007,26.7302239 145.218989,26.3530857 146.236814,25.9630319 L146.236814,26.6036501 C146.236814,26.6863105 146.304843,26.7560552 146.388572,26.7560552 L151.990535,26.7560552 C152.07688,26.7560552 152.142293,26.6863105 152.142293,26.6036501 L152.142293,25.8674558 C153.30926,26.3401701 154.536406,26.7250576 155.800184,27.0169522 C155.873446,27.032451 155.946709,26.9962871 155.980724,26.9265423 L156.331337,26.07669 C156.349653,26.0301935 156.347036,25.983697 156.323487,25.94495 L156.323487,25.94495 Z" id="Fill-57" fill="#090909" mask="url(#mask-2)"></path>
                </g>
            </g>
        </g>
    </g>
</svg>