<svg width="300" height="61" viewBox="0 0 300 61" fill="none" xmlns="http://www.w3.org/2000/svg">
<path fill-rule="evenodd" clip-rule="evenodd" d="M22.2539 0.659851L0.903809 13.3816V48.3836L22.2539 35.6553V25.6571L10.5902 32.6102V17.6079L22.2539 10.6581V0.659851Z" fill="#7FB439"/>
<path fill-rule="evenodd" clip-rule="evenodd" d="M22.2539 0.659851V10.6581L28.0873 14.1363V29.132L22.2539 25.6571V35.6553L28.0873 39.1335L37.7737 44.9086L43.604 48.3836V38.3821L37.7737 34.9071V19.9082L43.604 23.3864V13.3816L22.2539 0.659851Z" fill="#939597"/>
<path fill-rule="evenodd" clip-rule="evenodd" d="M0.903809 47.7573L22.8818 60.9424L44.8599 47.7573L38.8516 44.1558L26.8579 51.3554L16.8801 45.3733L28.8869 38.1703L22.8818 34.5688L0.903809 47.7573Z" fill="#626366"/>
<path fill-rule="evenodd" clip-rule="evenodd" d="M61.706 15.6722C61.4201 14.8164 60.8089 14.2111 59.8461 14.2111C58.5382 14.2111 57.7463 15.4184 57.7463 17.7972C57.7134 20.1727 58.4265 21.3767 59.9052 21.3767C60.7826 21.3767 61.3248 21.0708 61.9097 19.8766L63.7203 20.3517C63.1124 22.1121 61.775 23.0135 59.9052 23.0135C57.2928 23.0135 55.7812 21.1131 55.7812 17.7972C55.7812 14.478 57.2928 12.5808 59.9052 12.5808C61.8637 12.5808 63.004 13.4497 63.4838 15.2492L61.706 15.6722Z" fill="#090909"/>
<path fill-rule="evenodd" clip-rule="evenodd" d="M68.7627 14.2103C67.1591 14.2103 66.4197 15.4208 66.4197 17.7963C66.3868 20.1718 67.1393 21.3791 68.7627 21.3791C70.3662 21.3791 71.1089 20.1718 71.1089 17.7963C71.1089 15.4208 70.3662 14.2103 68.7627 14.2103ZM68.7626 23.0127C65.9629 23.0127 64.4546 21.1123 64.4546 17.7964C64.4546 14.4772 65.9629 12.58 68.7626 12.58C71.559 12.58 73.064 14.4772 73.064 17.7964C73.064 21.1123 71.559 23.0127 68.7626 23.0127Z" fill="#090909"/>
<path fill-rule="evenodd" clip-rule="evenodd" d="M74.6479 22.8715V12.7219H76.6952L80.7271 19.6369H80.7534V12.7219H82.6002V22.8715H80.7173L76.5276 15.6409H76.498V22.8715H74.6479Z" fill="#090909"/>
<path fill-rule="evenodd" clip-rule="evenodd" d="M89.6983 15.4196C89.396 14.6321 88.7881 14.0984 87.8647 14.0984C87.0169 14.0984 86.4057 14.4336 86.4057 15.2243C86.4057 16.9685 91.6864 16.6041 91.6864 19.8907C91.6864 21.9701 90.3654 23.0114 88.098 23.0114C86.4221 23.0114 84.8448 22.0808 84.2632 20.6067L85.8799 19.9038C86.3465 20.8572 86.9577 21.4918 88.1111 21.4918C89.0871 21.4918 89.8429 21.1273 89.8429 20.1478C89.8429 18.1465 84.5556 18.537 84.5556 15.4196C84.5556 13.6038 86.0935 12.5787 87.8647 12.5787C89.5143 12.5787 90.8747 13.3955 91.4892 14.8729L89.6983 15.4196Z" fill="#090909"/>
<path fill-rule="evenodd" clip-rule="evenodd" d="M100.034 12.704V14.3375H97.3497V22.8731H95.3912V14.3375H92.7065V12.704H100.034Z" fill="#090909"/>
<path fill-rule="evenodd" clip-rule="evenodd" d="M103.379 17.1626H104.831C106.362 17.1626 106.836 16.6842 106.836 15.7275C106.836 14.7708 106.251 14.2925 105.173 14.2925H103.379V17.1626ZM101.423 22.8702V12.7206H105.508C107.834 12.7206 108.774 14.0548 108.791 15.7274C108.804 16.9803 108.166 17.9923 106.914 18.3405L109.175 22.8702H107.006L105.074 18.7375H103.379V22.8702H101.423Z" fill="#090909"/>
<path fill-rule="evenodd" clip-rule="evenodd" d="M116.885 12.7217H118.84V19.077C118.84 22.0415 116.994 23.0145 114.907 23.0145C112.82 23.0145 110.97 22.0415 110.97 19.077V12.7217H112.942V19.1584C112.942 20.805 113.586 21.3777 114.907 21.3777C116.228 21.3777 116.885 20.805 116.885 19.1584V12.7217Z" fill="#090909"/>
<path fill-rule="evenodd" clip-rule="evenodd" d="M126.378 15.6722C126.092 14.8164 125.481 14.2111 124.518 14.2111C123.21 14.2111 122.421 15.4184 122.421 17.7972C122.385 20.1727 123.101 21.3767 124.57 21.3767C125.458 21.3767 125.996 21.0708 126.581 19.8766L128.389 20.3517C127.781 22.1121 126.447 23.0135 124.57 23.0135C121.964 23.0135 120.459 21.1131 120.459 17.7972C120.459 14.478 121.964 12.5808 124.57 12.5808C126.529 12.5808 127.669 13.4497 128.152 15.2492L126.378 15.6722Z" fill="#090909"/>
<path fill-rule="evenodd" clip-rule="evenodd" d="M136.309 12.704V14.3375H133.635V22.8731H131.673V14.3375H128.985V12.704H136.309Z" fill="#090909"/>
<mask id="mask0" mask-type="alpha" maskUnits="userSpaceOnUse" x="0" y="0" width="300" height="60">
<path fill-rule="evenodd" clip-rule="evenodd" d="M0 59.9442H300V0H0V59.9442Z" fill="white"/>
</mask>
<g mask="url(#mask0)">
<path fill-rule="evenodd" clip-rule="evenodd" d="M137.975 22.8733H139.933V12.7205H137.975V22.8733Z" fill="#090909"/>
<path fill-rule="evenodd" clip-rule="evenodd" d="M146.052 14.2103C144.449 14.2103 143.713 15.4208 143.713 17.7963C143.683 20.1718 144.432 21.3791 146.052 21.3791C147.653 21.3791 148.392 20.1718 148.392 17.7963C148.392 15.4208 147.653 14.2103 146.052 14.2103ZM146.052 23.0127C143.256 23.0127 141.751 21.1123 141.751 17.7964C141.751 14.4772 143.256 12.58 146.052 12.58C148.849 12.58 150.357 14.4772 150.357 17.7964C150.357 21.1123 148.849 23.0127 146.052 23.0127Z" fill="#090909"/>
<path fill-rule="evenodd" clip-rule="evenodd" d="M151.947 22.8715V12.7219H153.985L158.023 19.6369H158.046V12.7219H159.89V22.8715H158L153.817 15.6409H153.787V22.8715H151.947Z" fill="#090909"/>
<path fill-rule="evenodd" clip-rule="evenodd" d="M167.908 23.0132H169.873V12.8636H167.908V23.0132Z" fill="#090909"/>
<path fill-rule="evenodd" clip-rule="evenodd" d="M172.408 23.0131V12.8603H174.455L178.49 19.7786H178.513V12.8603H180.363V23.0131H178.474L174.284 15.7857H174.258V23.0131H172.408Z" fill="#090909"/>
<path fill-rule="evenodd" clip-rule="evenodd" d="M184.573 21.3829H185.885C188.126 21.3829 188.648 19.7526 188.648 17.94C188.648 16.1242 188.126 14.4972 185.885 14.4972H184.573V21.3829ZM182.612 12.8636H186.013C188.724 12.8636 190.594 14.354 190.607 17.94C190.594 21.5195 188.724 23.0132 186.013 23.0132H182.612V12.8636Z" fill="#090909"/>
<path fill-rule="evenodd" clip-rule="evenodd" d="M198.074 12.8616H200.039V19.2201C200.039 22.1846 198.189 23.1511 196.099 23.1511C194.019 23.1511 192.172 22.1846 192.172 19.2201V12.8616H194.131V19.3015C194.131 20.9448 194.781 21.5208 196.099 21.5208C197.42 21.5208 198.074 20.9448 198.074 19.3015V12.8616Z" fill="#090909"/>
<path fill-rule="evenodd" clip-rule="evenodd" d="M207.172 15.5609C206.876 14.7734 206.268 14.2398 205.338 14.2398C204.487 14.2398 203.879 14.5782 203.879 15.3657C203.879 17.1099 209.16 16.7389 209.16 20.0321C209.16 22.118 207.839 23.1496 205.568 23.1496C203.892 23.1496 202.318 22.2221 201.74 20.748L203.36 20.0484C203.823 21.0051 204.438 21.6364 205.584 21.6364C206.564 21.6364 207.316 21.2687 207.316 20.2827C207.316 18.2911 202.035 18.6816 202.035 15.5609C202.035 13.7451 203.57 12.7201 205.338 12.7201C206.988 12.7201 208.351 13.5369 208.959 15.0142L207.172 15.5609Z" fill="#090909"/>
<path fill-rule="evenodd" clip-rule="evenodd" d="M217.508 12.8488V14.4791H214.83V23.0147H212.865V14.4791H210.183V12.8488H217.508Z" fill="#090909"/>
<path fill-rule="evenodd" clip-rule="evenodd" d="M220.855 17.3043H222.304C223.842 17.3043 224.305 16.8259 224.305 15.8724C224.305 14.919 223.727 14.4374 222.649 14.4374H220.855V17.3043ZM218.896 23.0119V12.8623H222.988C225.314 12.8623 226.251 14.1997 226.264 15.8724C226.274 17.1252 225.643 18.1372 224.387 18.4887L226.652 23.0119H224.483L222.551 18.8792H220.855V23.0119H218.896Z" fill="#090909"/>
<path fill-rule="evenodd" clip-rule="evenodd" d="M230.954 16.8813L232.712 12.8625H234.756L231.936 18.964V23.0121H229.971V18.964L227.148 12.8625H229.192L230.954 16.8813Z" fill="#090909"/>
<path fill-rule="evenodd" clip-rule="evenodd" d="M246.78 15.8153C246.498 14.9562 245.89 14.3542 244.924 14.3542C243.612 14.3542 242.817 15.5615 242.817 17.9403C242.791 20.3158 243.504 21.5198 244.979 21.5198C245.863 21.5198 246.399 21.2139 246.984 20.0196L248.795 20.4947C248.187 22.2552 246.853 23.1501 244.979 23.1501C242.37 23.1501 240.855 21.2562 240.855 17.9403C240.855 14.6178 242.37 12.7206 244.979 12.7206C246.941 12.7206 248.075 13.5895 248.555 15.3923L246.78 15.8153Z" fill="#090909"/>
<path fill-rule="evenodd" clip-rule="evenodd" d="M253.84 14.3521C252.234 14.3521 251.494 15.5626 251.494 17.9414C251.465 20.3169 252.22 21.5209 253.84 21.5209C255.441 21.5209 256.18 20.3169 256.18 17.9414C256.18 15.5626 255.441 14.3521 253.84 14.3521ZM253.841 23.1512C251.044 23.1512 249.539 21.2573 249.539 17.9414C249.539 14.6189 251.044 12.7217 253.841 12.7217C256.634 12.7217 258.139 14.6189 258.139 17.9414C258.139 21.2573 256.634 23.1512 253.841 23.1512Z" fill="#090909"/>
<path fill-rule="evenodd" clip-rule="evenodd" d="M265.675 12.8616H267.633V19.2201C267.633 22.1846 265.787 23.1511 263.703 23.1511C261.617 23.1511 259.767 22.1846 259.767 19.2201V12.8616H261.728V19.3015C261.728 20.9448 262.379 21.5208 263.703 21.5208C265.021 21.5208 265.675 20.9448 265.675 19.3015V12.8616Z" fill="#090909"/>
<path fill-rule="evenodd" clip-rule="evenodd" d="M269.975 23.0131V12.8603H272.026L276.054 19.7786H276.077V12.8603H277.927V23.0131H276.038L271.848 15.7857H271.822V23.0131H269.975Z" fill="#090909"/>
<path fill-rule="evenodd" clip-rule="evenodd" d="M285.417 15.8153C285.134 14.9562 284.523 14.3542 283.564 14.3542C282.253 14.3542 281.461 15.5615 281.461 17.9403C281.431 20.3158 282.147 21.5198 283.613 21.5198C284.5 21.5198 285.042 21.2139 285.621 20.0196L287.435 20.4947C286.823 22.2552 285.493 23.1501 283.613 23.1501C281.007 23.1501 279.496 21.2562 279.496 17.9403C279.496 14.6178 281.007 12.7206 283.613 12.7206C285.575 12.7206 286.715 13.5895 287.195 15.3923L285.417 15.8153Z" fill="#090909"/>
<path fill-rule="evenodd" clip-rule="evenodd" d="M289.13 23.0132H291.082V12.8636H289.13V23.0132Z" fill="#090909"/>
<path fill-rule="evenodd" clip-rule="evenodd" d="M293.578 23.0131V12.8603H295.543V21.3828H300.002V23.0131H293.578Z" fill="#090909"/>
<path fill-rule="evenodd" clip-rule="evenodd" d="M72.8767 44.8005H64.6517C62.1017 44.7647 60.301 44.0586 59.2922 42.6983C60.3174 40.453 60.8596 38.0612 60.9056 35.5816C60.9056 35.2334 60.6986 35.0219 60.324 35.0056H58.0336L60.715 29.9715C60.7479 29.9129 60.7479 29.8413 60.7084 29.7827L60.2583 29.1026C60.2254 29.0506 60.163 29.0148 60.0972 29.0148H55.9404C55.8319 29.0148 55.7465 29.1026 55.7465 29.2068V30.3522C55.7465 30.4563 55.8319 30.5442 55.9404 30.5442H58.7138L56.0291 35.5718C55.9995 35.6304 55.9995 35.7052 56.0357 35.7638L56.4662 36.4439C56.5056 36.496 56.5647 36.5318 56.6337 36.5318H59.302C59.2527 38.1426 58.9175 39.646 58.3195 41.003C57.935 40.1862 57.5933 39.2262 57.3008 38.1426C57.2877 38.0905 57.2515 38.0482 57.2121 38.0222C57.1661 37.9994 57.1102 37.9929 57.0609 38.0059L56.0521 38.2988C55.9535 38.3248 55.8944 38.4322 55.9272 38.5331C56.3676 40.082 56.9163 41.4292 57.5407 42.5422C56.9821 43.4891 56.2361 44.4946 55.3062 45.5522C55.2437 45.6271 55.2503 45.741 55.3193 45.8125L56.269 46.7465C56.3084 46.779 56.3577 46.7985 56.407 46.7985H56.4169C56.4662 46.7953 56.522 46.7725 56.5516 46.7302C57.2942 45.8646 57.9679 44.9469 58.5725 43.9967C59.4959 45.0739 60.5113 45.7312 61.5858 45.959C62.5684 46.1672 63.7382 46.2942 65.0625 46.3332H72.5941C72.6828 46.3332 72.765 46.2746 72.788 46.1868L73.064 45.0381C73.0804 44.9795 73.0673 44.9209 73.0279 44.8721C72.9884 44.8265 72.9326 44.8005 72.8767 44.8005Z" fill="#090909"/>
<path fill-rule="evenodd" clip-rule="evenodd" d="M67.3245 32.2841H70.2425V30.9304H67.3245V32.2841ZM67.3245 35.1575H70.2425V33.8037H67.3245V35.1575ZM72.9863 32.2842H71.7245V29.9444C71.7245 29.606 71.5208 29.401 71.1757 29.401H67.3245V28.2751C67.3245 28.1644 67.239 28.0798 67.1339 28.0798H66.0331C65.9213 28.0798 65.8359 28.1644 65.8359 28.2751V29.401H62.172C62.0602 29.401 61.9781 29.4856 61.9781 29.5897V30.7385C61.9781 30.8491 62.0602 30.9304 62.172 30.9304H65.8359V32.2842H60.8805C60.7787 32.2842 60.6899 32.3655 60.6899 32.4729V33.6151C60.6899 33.7225 60.7787 33.8071 60.8805 33.8071H65.8359V35.1575H62.3888C62.287 35.1575 62.2015 35.2454 62.2015 35.3495V36.495C62.2015 36.5991 62.287 36.687 62.3888 36.687H65.8359V37.9593H61.8499C61.748 37.9593 61.6593 38.044 61.6593 38.1513V39.2968C61.6593 39.4042 61.748 39.4888 61.8499 39.4888H65.8359V40.683H61.035C60.9265 40.683 60.8378 40.7677 60.8378 40.8718V42.0205C60.8378 42.1279 60.9265 42.2125 61.035 42.2125H65.8359V44.0055C65.8359 44.1064 65.9213 44.1942 66.0331 44.1942H67.1339C67.239 44.1942 67.3245 44.1064 67.3245 44.0055V42.2125H72.6906C72.7958 42.2125 72.8845 42.1279 72.8845 42.0205V40.8718C72.8845 40.7677 72.7958 40.683 72.6906 40.683H67.3245V39.4888H71.8724C71.9775 39.4888 72.063 39.4042 72.063 39.2968V38.1513C72.063 38.044 71.9775 37.9593 71.8724 37.9593H67.3245V36.687H71.1757C71.5208 36.687 71.7245 36.4787 71.7245 36.1273V33.8071H72.9863C73.0915 33.8071 73.1802 33.7225 73.1802 33.6151V32.4729C73.1802 32.3655 73.0915 32.2842 72.9863 32.2842Z" fill="#090909"/>
<path fill-rule="evenodd" clip-rule="evenodd" d="M87.0158 30.1267C87.65 30.5204 88.4288 31.155 89.3982 32.0694C89.4277 32.1019 89.4803 32.1182 89.5296 32.1182C89.5296 32.1182 89.5395 32.1182 89.5427 32.1182C89.592 32.115 89.6446 32.0889 89.6808 32.0434L90.3873 31.129C90.4464 31.0541 90.4366 30.9435 90.3675 30.8784C89.4705 30.016 88.6292 29.3392 87.8734 28.8673C87.788 28.8153 87.673 28.8381 87.6171 28.9227L86.9566 29.8566C86.9303 29.8989 86.9238 29.951 86.9271 30.003C86.9402 30.0551 86.9731 30.1007 87.0158 30.1267Z" fill="#090909"/>
<path fill-rule="evenodd" clip-rule="evenodd" d="M91.3958 33.848C91.4681 33.9196 91.5864 33.9228 91.6587 33.8578C92.26 33.3469 92.7989 32.7026 93.2721 31.9443H96.8966V34.4403H91.2742C91.1691 34.4403 91.0803 34.5281 91.0803 34.6322V35.781C91.0803 35.8851 91.1691 35.9697 91.2742 35.9697H104.195C104.303 35.9697 104.389 35.8851 104.389 35.781V34.6322C104.389 34.5281 104.303 34.4403 104.195 34.4403H98.3819V31.9443H103.373C103.482 31.9443 103.567 31.8565 103.567 31.7523V30.6036C103.567 30.4995 103.482 30.4149 103.373 30.4149H98.3819V28.5047C98.3819 28.4006 98.2965 28.3127 98.1881 28.3127H97.0872C96.9821 28.3127 96.8966 28.4006 96.8966 28.5047V30.4149H93.9984L94.4025 29.1848C94.419 29.1393 94.4124 29.0872 94.3894 29.0384C94.3631 28.9929 94.3204 28.9603 94.2678 28.944L93.2031 28.6544C93.1013 28.6251 92.9961 28.6837 92.9698 28.7846C92.6642 29.8259 92.3553 30.6004 92.0629 31.0853C91.6587 31.6873 91.1625 32.2535 90.5841 32.7579C90.5414 32.7904 90.5184 32.8425 90.5151 32.8978C90.5151 32.9466 90.5349 32.9954 90.5743 33.0345L91.3958 33.848Z" fill="#090909"/>
<path fill-rule="evenodd" clip-rule="evenodd" d="M93.9057 42.0498H101.447V38.9454H93.9057V42.0498ZM92.7622 37.4159C92.6176 37.4159 92.45 37.5005 92.4204 37.7576V43.2115C92.4204 43.4328 92.5551 43.5792 92.7622 43.5792H102.574C102.788 43.5792 102.936 43.4328 102.936 43.2115V37.7576C102.936 37.5721 102.811 37.4419 102.574 37.4159H92.7622Z" fill="#090909"/>
<path fill-rule="evenodd" clip-rule="evenodd" d="M104.271 44.8451L93.8048 44.985C91.8003 44.9557 90.3775 44.3993 89.5823 43.3417C90.3873 41.591 90.7554 40.4423 90.7981 38.441C90.7981 38.1416 90.6108 37.9529 90.2888 37.9398H88.6096L90.4399 33.6542C90.4629 33.5956 90.4596 33.5273 90.4235 33.4752L89.9733 32.7951C89.9404 32.7398 89.878 32.7072 89.8156 32.7072H86.8055C86.6938 32.7072 86.6117 32.7918 86.6117 32.8992V34.0316C86.6117 34.139 86.6938 34.2236 86.8055 34.2236H88.5439L86.6938 38.5419C86.6708 38.6004 86.6741 38.6655 86.707 38.7176L87.1374 39.4009C87.1736 39.4563 87.2327 39.4888 87.3017 39.4888H89.2635C89.1912 40.7384 88.6556 43.0814 86.0958 45.8832C86.0596 45.9222 86.0432 45.971 86.0498 46.0231C86.0498 46.0784 86.076 46.124 86.1221 46.1598L87.0487 46.8984C87.0881 46.931 87.1276 46.9407 87.1736 46.9407C87.2262 46.9407 87.2853 46.918 87.3149 46.8724C87.8899 46.2086 88.419 45.4959 88.9053 44.7377C89.6348 45.574 90.4366 46.0914 91.2943 46.2704C92.0829 46.4396 93.0162 46.5372 94.0677 46.5665H103.939C104.034 46.5665 104.11 46.5079 104.13 46.4201L104.462 45.0826C104.475 45.0241 104.461 44.9655 104.422 44.9167C104.386 44.8711 104.314 44.8451 104.271 44.8451Z" fill="#090909"/>
<path fill-rule="evenodd" clip-rule="evenodd" d="M124.192 34.6919L123.387 33.0323H128.546L127.81 34.6919H124.192ZM134.773 44.3046C132.098 43.5887 129.857 42.5962 128.093 41.3531H134.386C134.494 41.3531 134.576 41.2685 134.576 41.1643V40.0156C134.576 39.9115 134.494 39.8269 134.386 39.8269H126.857V38.7888H133.265C133.373 38.7888 133.462 38.7042 133.462 38.6001V37.4514C133.462 37.344 133.373 37.2594 133.265 37.2594H126.857V36.2213H133.788C133.896 36.2213 133.981 36.1335 133.981 36.0326V34.8839C133.981 34.7765 133.896 34.6919 133.788 34.6919H129.434L130.13 33.0323H134.458C134.57 33.0323 134.652 32.9477 134.652 32.8436V31.6948C134.652 31.5907 134.57 31.5061 134.458 31.5061H131.313C131.868 30.7446 132.296 30.0418 132.614 29.4072C132.657 29.3258 132.631 29.2185 132.549 29.1664L131.625 28.5416C131.573 28.5156 131.517 28.5026 131.464 28.5156C131.408 28.5286 131.366 28.5676 131.336 28.6164C131.037 29.2445 130.531 30.032 129.831 30.9594C129.762 31.044 129.779 31.1644 129.871 31.223L130.235 31.5061H128.5V28.4277C128.5 28.3236 128.412 28.2357 128.306 28.2357H127.202C127.097 28.2357 127.012 28.3236 127.012 28.4277V31.5061H125.287V28.4277C125.287 28.3236 125.208 28.2357 125.099 28.2357H123.995C123.89 28.2357 123.805 28.3236 123.805 28.4277V31.5061H122.138L122.418 31.3336C122.5 31.2848 122.533 31.1774 122.49 31.0896C122.01 30.1101 121.557 29.3356 121.094 28.7206C121.031 28.6425 120.916 28.623 120.834 28.6815L119.888 29.3226C119.851 29.3519 119.822 29.4007 119.815 29.4495C119.805 29.4983 119.815 29.5536 119.845 29.5927C120.183 30.045 120.571 30.6893 120.995 31.5061H117.653C117.545 31.5061 117.462 31.5907 117.462 31.6948V32.8436C117.462 32.9477 117.545 33.0323 117.653 33.0323H121.734L122.566 34.6919H118.32C118.215 34.6919 118.133 34.7765 118.133 34.8839V36.0326C118.133 36.1335 118.215 36.2213 118.32 36.2213H125.369V37.2594H118.846C118.741 37.2594 118.659 37.344 118.659 37.4514V38.6001C118.659 38.7042 118.741 38.7888 118.846 38.7888H125.369V39.8269H117.949C117.847 39.8269 117.758 39.9115 117.758 40.0156V41.1643C117.758 41.2685 117.847 41.3531 117.949 41.3531H124.156C122.148 42.7784 119.901 43.7839 117.485 44.3436C117.416 44.3566 117.377 44.3924 117.351 44.4445C117.324 44.4933 117.324 44.5519 117.344 44.6039L117.827 45.6746C117.87 45.7559 117.959 45.8015 118.047 45.7852C120.259 45.3361 122.723 44.1581 125.369 42.2772V46.8037C125.369 46.9079 125.461 46.9957 125.563 46.9957H126.663C126.769 46.9957 126.857 46.9079 126.857 46.8037V42.2675C129.223 43.8848 131.658 45.04 134.096 45.7038C134.182 45.7266 134.267 45.6876 134.31 45.6095L134.892 44.5812C134.911 44.5291 134.921 44.4673 134.898 44.4152C134.872 44.3631 134.826 44.3208 134.773 44.3046Z" fill="#090909"/>
<path fill-rule="evenodd" clip-rule="evenodd" d="M149.719 44.7995H151.733V41.041H149.719V44.7995ZM152.86 39.5149H148.565C148.421 39.5149 148.256 39.5995 148.224 39.8631V45.9646C148.224 46.2379 148.411 46.3323 148.565 46.3323H152.86C153.077 46.3323 153.218 46.1891 153.218 45.9646V39.8631C153.218 39.7134 153.126 39.5474 152.86 39.5149Z" fill="#090909"/>
<path fill-rule="evenodd" clip-rule="evenodd" d="M165.152 43.2925L164.071 42.9639C164.015 42.9476 163.953 42.9541 163.907 42.9899C163.854 43.0225 163.825 43.0778 163.825 43.1363L163.73 44.6528C163.713 44.7797 163.69 44.8383 163.67 44.8675C163.621 44.8415 163.506 44.7634 163.296 44.5291C163.145 44.3762 162.97 44.1354 162.79 43.8165C163.401 43.1559 163.937 42.505 164.393 41.877C164.456 41.7957 164.436 41.6818 164.354 41.6134L163.48 40.9333C163.394 40.8715 163.276 40.8845 163.207 40.9658L162.113 42.3358C161.916 41.7924 161.774 41.288 161.682 40.8097H164.85C164.955 40.8097 165.041 40.725 165.041 40.6177V39.4722C165.041 39.3648 164.955 39.2802 164.85 39.2802H161.452L161.311 36.973C161.311 36.8722 161.226 36.7908 161.12 36.7908H160.003C159.895 36.7908 159.809 36.8787 159.809 36.9828C159.809 37.6792 159.855 38.4504 159.937 39.2802H157.473V38.2422L158.682 37.9656C158.787 37.9428 158.853 37.8451 158.83 37.741L158.603 36.6346C158.597 36.5793 158.557 36.5337 158.515 36.5077C158.472 36.4817 158.413 36.4719 158.36 36.4882C157.23 36.7941 155.79 37.0023 154.078 37.1032C154.023 37.1065 153.973 37.1325 153.937 37.1781C153.901 37.2204 153.891 37.2757 153.901 37.331L154.128 38.4764C154.144 38.5741 154.239 38.6424 154.331 38.6326L155.988 38.4569V39.2802H153.72C153.612 39.2802 153.526 39.3648 153.526 39.4722V40.6177C153.526 40.725 153.612 40.8097 153.72 40.8097H155.988V42.2382L153.809 42.7036C153.747 42.7198 153.707 42.7491 153.681 42.8012C153.651 42.85 153.641 42.9086 153.664 42.9574L154.078 44.0508C154.108 44.1386 154.203 44.1939 154.299 44.1712L155.988 43.7937L155.991 45.1279L155.945 45.3492C155.846 45.5053 155.748 45.5216 155.695 45.5249C155.363 45.4858 154.907 45.3589 154.348 45.1474C154.282 45.1246 154.223 45.1311 154.167 45.1702C154.115 45.2027 154.088 45.2613 154.088 45.3264V46.5109C154.088 46.5955 154.138 46.6703 154.223 46.6931C154.884 46.8949 155.449 46.999 155.892 46.999C156.264 46.999 156.569 46.9307 156.812 46.781C157.24 46.4751 157.456 46.0293 157.473 45.4598V43.3576L159.454 42.645C159.504 42.6255 159.54 42.5864 159.566 42.5408C159.586 42.492 159.586 42.4335 159.563 42.3879L159.077 41.3563C159.037 41.2652 158.922 41.2229 158.83 41.2587L157.473 41.7989V40.8097H160.174C160.322 41.7599 160.588 42.645 160.973 43.4585L160.913 43.5008C160 44.1874 159.086 44.7244 158.186 45.0921C158.137 45.1149 158.101 45.1539 158.084 45.206C158.064 45.258 158.074 45.3166 158.101 45.3622L158.676 46.3514C158.722 46.4425 158.84 46.4751 158.929 46.4295C160.069 45.8893 160.999 45.3459 161.682 44.8122C162.547 46.1594 163.289 46.8233 163.976 46.8363C164.173 46.8168 164.354 46.7419 164.495 46.602C164.821 46.2408 165.083 45.2287 165.287 43.4976C165.297 43.4064 165.244 43.3218 165.152 43.2925Z" fill="#090909"/>
<path fill-rule="evenodd" clip-rule="evenodd" d="M148.417 35.7563H152.843C152.948 35.7563 153.034 35.6684 153.034 35.5675V34.4156C153.034 34.3114 152.948 34.2236 152.843 34.2236H148.417C148.312 34.2236 148.223 34.3114 148.223 34.4156V35.5675C148.223 35.6684 148.312 35.7563 148.417 35.7563Z" fill="#090909"/>
<path fill-rule="evenodd" clip-rule="evenodd" d="M148.225 38.1301C148.225 38.2375 148.31 38.3221 148.418 38.3221H152.914C153.026 38.3221 153.108 38.2375 153.108 38.1301V36.9814C153.108 36.8772 153.026 36.7926 152.914 36.7926H148.418C148.31 36.7926 148.225 36.8772 148.225 36.9814V38.1301Z" fill="#090909"/>
<path fill-rule="evenodd" clip-rule="evenodd" d="M153.789 34.9269C153.684 34.9269 153.602 35.0115 153.602 35.1156V36.2643C153.602 36.3684 153.684 36.4563 153.789 36.4563H162.566L162.07 36.9444C162.027 36.9802 162.011 37.0355 162.011 37.0843C162.011 37.1364 162.034 37.1885 162.073 37.221C162.451 37.5692 162.902 38.0866 163.411 38.7667C163.444 38.8123 163.493 38.8383 163.549 38.8448H163.565C163.611 38.8448 163.657 38.8285 163.694 38.796L164.551 38.0378C164.63 37.9727 164.637 37.8621 164.584 37.784C164.183 37.2503 163.818 36.8142 163.467 36.4563H164.778C164.886 36.4563 164.969 36.3684 164.969 36.2643V35.1156C164.969 35.0115 164.886 34.9269 164.778 34.9269H160.01V34.1198H164.328C164.433 34.1198 164.522 34.0352 164.522 33.9278V32.7824C164.522 32.6783 164.433 32.5904 164.328 32.5904H160.01V31.7085H164.702C164.811 31.7085 164.896 31.6272 164.896 31.5198V30.3743C164.896 30.267 164.811 30.1823 164.702 30.1823H162.215L162.701 28.8839C162.741 28.7863 162.691 28.6822 162.593 28.6431L161.567 28.2136C161.518 28.1941 161.462 28.1941 161.406 28.2169C161.364 28.2364 161.328 28.2819 161.311 28.334C161.16 28.8124 160.914 29.4339 160.568 30.1823H157.815C157.493 29.4339 157.158 28.7928 156.826 28.2852C156.767 28.2006 156.655 28.1746 156.569 28.2266L155.593 28.7863C155.554 28.8156 155.518 28.8579 155.508 28.9067C155.495 28.962 155.501 29.0109 155.531 29.0532C155.725 29.3558 155.932 29.7333 156.159 30.1823H154.016C153.908 30.1823 153.829 30.267 153.829 30.3743V31.5198C153.829 31.6272 153.908 31.7085 154.016 31.7085H158.525V32.5904H154.243C154.131 32.5904 154.046 32.6783 154.046 32.7824V33.9278C154.046 34.0352 154.131 34.1198 154.243 34.1198H158.525V34.9269H153.789Z" fill="#090909"/>
<path fill-rule="evenodd" clip-rule="evenodd" d="M153.783 32.8422V31.6935C153.783 31.5894 153.687 31.5048 153.585 31.5048H147.97C147.864 31.5048 147.782 31.5894 147.782 31.6935V32.8422C147.782 32.9496 147.864 33.031 147.97 33.031H153.585C153.687 33.031 153.783 32.9496 153.783 32.8422Z" fill="#090909"/>
<path fill-rule="evenodd" clip-rule="evenodd" d="M148.417 30.5431H152.912C153.024 30.5431 153.11 30.4585 153.11 30.3511V29.2057C153.11 29.1015 153.024 29.0169 152.912 29.0169H148.417C148.312 29.0169 148.223 29.1015 148.223 29.2057V30.3511C148.223 30.4585 148.312 30.5431 148.417 30.5431Z" fill="#090909"/>
<path fill-rule="evenodd" clip-rule="evenodd" d="M192.856 37.7266H190.441C190.746 37.1994 191.009 36.6983 191.226 36.2232C191.266 36.1386 191.236 36.0345 191.147 35.9824L190.198 35.4032C190.158 35.3706 190.096 35.3641 190.046 35.3804C189.994 35.3967 189.948 35.4357 189.928 35.4845C189.642 36.0833 189.212 36.8382 188.63 37.7266H187.776V35.3641H192.856V37.7266ZM186.287 37.7266H184.49L185.071 37.1376C185.14 37.066 185.14 36.9554 185.081 36.8805C184.582 36.2818 184.085 35.7969 183.612 35.4325C183.533 35.3706 183.418 35.3804 183.346 35.4552L182.607 36.2948C182.571 36.3339 182.554 36.3827 182.561 36.4347C182.561 36.4901 182.584 36.5324 182.63 36.5649C182.962 36.8382 183.356 37.2287 183.796 37.7266H181.059V35.3641H186.287V37.7266ZM193.976 33.838H179.915C179.774 33.838 179.6 33.9226 179.574 34.1862V38.8884C179.574 39.1097 179.705 39.2561 179.915 39.2561H193.976C194.197 39.2561 194.338 39.1097 194.338 38.8884V34.1862C194.338 34.0333 194.249 33.864 193.976 33.838Z" fill="#090909"/>
<path fill-rule="evenodd" clip-rule="evenodd" d="M182.027 43.0129H191.813V41.7437H182.027V43.0129ZM182.027 45.6618H191.813V44.5456H182.027V45.6618ZM192.934 40.2176H180.884C180.693 40.2176 180.568 40.3347 180.545 40.5593V46.8169C180.545 47.0903 180.726 47.1912 180.884 47.1912H192.934C193.154 47.1912 193.292 47.0415 193.292 46.8169V40.5593C193.292 40.4096 193.207 40.2436 192.934 40.2176Z" fill="#090909"/>
<path fill-rule="evenodd" clip-rule="evenodd" d="M184.445 31.5838C185.48 31.0501 186.295 30.549 186.867 30.0804C187.8 30.6336 188.767 31.1347 189.772 31.5838H184.445ZM195.973 32.0882C195.943 32.0362 195.894 32.0036 195.831 31.9906C192.864 31.4927 190.176 30.523 187.84 29.1042L187.899 29.0424C187.932 29.0033 187.945 28.9513 187.942 28.8992C187.938 28.8471 187.912 28.7983 187.866 28.7658L187.1 28.18C187.021 28.1182 186.906 28.1312 186.841 28.2061C185.457 29.8103 182.585 31.1185 178.307 32.0947C178.248 32.1077 178.205 32.1403 178.179 32.1924C178.152 32.2412 178.149 32.2997 178.172 32.3486L178.599 33.4159C178.626 33.494 178.698 33.5363 178.773 33.5363C178.793 33.5363 178.81 33.5363 178.826 33.5298C180.518 33.0775 182.027 32.6024 183.305 32.111V32.918C183.305 33.0222 183.39 33.11 183.496 33.11H190.531C190.639 33.11 190.722 33.0222 190.722 32.918V31.9906C192.187 32.5861 193.728 33.071 195.315 33.4387C195.407 33.4582 195.499 33.4127 195.542 33.3248L195.983 32.2542C196.006 32.1956 196.002 32.137 195.973 32.0882Z" fill="#090909"/>
</g>
</svg>
