<svg xmlns="http://www.w3.org/2000/svg" width="38" height="33" viewBox="0 0 38 33">
    <g fill="none" fill-rule="evenodd">
        <path fill="#5e9c1a" stroke="#E4E5EB" d="M29.317.5H8.55c-2.223 0-4.235.901-5.692 2.358C1.4 4.315.5 6.328.5 8.55v15.753c0 2.223.901 4.236 2.358 5.693 1.457 1.456 3.47 2.357 5.692 2.357h20.767c2.223 0 4.235-.9 5.692-2.357 1.457-1.457 2.358-3.47 2.358-5.693V8.55c0-2.223-.901-4.235-2.358-5.692C33.552 1.4 31.539.5 29.317.5z"/>
        <path fill="#FFF" d="M17.6 12.267c-1.472 0-2.667 1.194-2.667 2.666S16.128 17.6 17.6 17.6c1.472 0 2.667-1.195 2.667-2.667 0-1.472-1.195-2.666-2.667-2.666zm5.648 9.818l-3.099-3.098c-.741.469-1.61.746-2.549.746-2.65 0-4.8-2.149-4.8-4.8 0-2.65 2.15-4.8 4.8-4.8s4.8 2.15 4.8 4.8c0 .939-.277 1.808-.747 2.544l3.104 3.094-1.509 1.514z"/>
    </g>
</svg>
