<svg xmlns="http://www.w3.org/2000/svg" width="23" height="25" viewBox="0 0 23 25">
    <g fill="#3D8CCB">
        <path d="M7.044 0c-1.037 0-1.88.861-1.88 1.92v6.707H1.406C.631 8.627 0 9.272 0 10.064v7.191c0 .793.631 1.437 1.407 1.437h3.756v4.314c0 1.057.844 1.917 1.88 1.917H21.12c1.037 0 1.88-.86 1.88-1.916V7.077c0-.124-.046-.243-.13-.332L16.65.147C16.562.053 16.44 0 16.312 0H7.044zm9.384 1.294l5.105 5.416h-5.105V1.294zM1.408 9.586h12.674c.259 0 .469.215.469.478v7.192c0 .263-.21.478-.469.478H1.407c-.258 0-.468-.215-.468-.478v-7.192c0-.263.21-.478.468-.478z"/>
        <path d="M3.219 15.744v-1.533h.62c.203 0 .392-.02.566-.058.174-.04.325-.105.452-.198.127-.092.226-.216.299-.372.073-.155.109-.348.109-.578 0-.233-.04-.426-.117-.58-.078-.154-.183-.276-.316-.367-.132-.09-.287-.154-.465-.191-.178-.037-.366-.056-.566-.056h-1.43v3.933h.848zm.566-2.266h-.566v-.934h.435c.08 0 .164.005.25.014.088.01.167.03.237.064.071.033.129.08.174.142.046.06.068.141.068.241 0 .093-.017.17-.051.231-.035.061-.08.11-.136.144-.057.036-.12.06-.19.075-.072.015-.145.023-.221.023zm2.894 2.266v-1.866l1.567 1.866h1.186l-1.86-2.105 1.714-1.828h-1.11l-1.497 1.633v-1.633h-.848v3.933h.848zm4.919.1c.283 0 .56-.03.832-.089.272-.059.534-.155.784-.288V13.41h-1.507v.8h.69v.639c-.08.044-.186.088-.32.13-.134.043-.294.064-.48.064-.18 0-.345-.031-.491-.094-.147-.063-.273-.151-.379-.264-.105-.113-.185-.246-.242-.4-.056-.154-.084-.323-.084-.508 0-.182.028-.35.084-.506.057-.155.137-.29.242-.403.106-.113.232-.2.379-.264.146-.062.31-.094.492-.094.218 0 .399.032.544.094.145.063.276.156.392.278l.598-.666c-.196-.186-.423-.316-.683-.392-.259-.076-.543-.114-.851-.114-.301 0-.579.048-.833.144-.253.097-.473.235-.658.414-.185.18-.329.398-.432.653-.104.256-.155.54-.155.856 0 .315.051.6.155.855.103.256.247.473.432.653.185.18.405.318.658.414.254.096.532.144.833.144z"/>
    </g>
</svg>
