<svg xmlns="http://www.w3.org/2000/svg" width="24" height="25" viewBox="0 0 24 25">
    <path fill="#CB403D" d="M7.35 0C6.268 0 5.388.864 5.388 1.926v6.728h-3.92C.658 8.654 0 9.3 0 10.095v7.214c0 .794.659 1.441 1.468 1.441h3.92v4.327c0 1.06.88 1.923 1.962 1.923h14.687C23.12 25 24 24.138 24 23.078V7.1c0-.124-.05-.244-.137-.334L17.374.147C17.282.053 17.154 0 17.022 0H7.35zm9.793 1.298l5.327 5.433h-5.327V1.298zM1.468 9.616h13.227c.27 0 .489.215.489.48v7.213c0 .264-.22.48-.49.48H1.469c-.27 0-.488-.216-.488-.48v-7.214c0-.264.219-.48.488-.48zm2.13 2.12l-1.639 4.13h.902l.347-.939H4.89l.367.938h.924l-1.685-4.13h-.898zm3.033 0v4.13h.85v-1.558h.554c.385 0 .678-.02.881-.06.15-.032.296-.097.44-.195.145-.099.264-.235.358-.408.094-.172.14-.385.14-.639 0-.328-.08-.597-.243-.804-.163-.208-.365-.342-.606-.404-.157-.042-.494-.062-1.01-.062H6.63zm3.932 0v4.13h.85v-1.249l.689-.69 1.156 1.938h1.1l-1.67-2.52 1.583-1.61H13.13l-1.716 1.835v-1.834h-.85zm-3.082.698h.41c.306 0 .51.01.612.029.138.024.251.085.341.182.09.098.135.222.135.373 0 .122-.032.229-.096.32-.064.093-.153.16-.265.203-.113.044-.338.065-.672.065H7.48v-1.172zm-3.444.265l.58 1.533H3.469l.568-1.533z"/>
</svg>
