<svg width="20" height="20" viewBox="0 0 20 20" fill="none" xmlns="http://www.w3.org/2000/svg">
<path fill-rule="evenodd" clip-rule="evenodd" d="M11.787 2.083C12.146 0.88 13.262 0 14.583 0C15.905 0 17.021 0.879 17.379 2.083H19.166C19.626 2.083 20 2.453 20 2.917C20 3.377 19.627 3.75 19.166 3.75H17.38C17.022 4.955 15.906 5.833 14.584 5.833C13.264 5.833 12.147 4.955 11.788 3.75H0.834C0.374 3.75 0 3.38 0 2.917C0 2.457 0.373 2.083 0.834 2.083H11.787ZM5.417 12.917C6.738 12.917 7.854 12.038 8.213 10.833H19.166C19.627 10.833 20 10.46 20 10C20 9.537 19.626 9.167 19.166 9.167H8.213C7.854 7.962 6.737 7.083 5.417 7.083C4.095 7.083 2.979 7.962 2.621 9.167H0.834C0.373 9.167 0 9.54 0 10C0 10.463 0.374 10.833 0.834 10.833H2.621C2.979 12.038 4.095 12.917 5.417 12.917ZM14.583 14.167C13.262 14.167 12.146 15.045 11.787 16.25H0.834C0.373 16.25 0 16.623 0 17.083C0 17.547 0.374 17.917 0.834 17.917H11.787C12.146 19.121 13.263 20 14.583 20C15.905 20 17.021 19.12 17.38 17.917H19.166C19.627 17.917 20 17.543 20 17.083C20 16.62 19.626 16.25 19.166 16.25H17.379C17.021 15.045 15.905 14.167 14.583 14.167ZM15.833 2.917C15.833 3.607 15.273 4.167 14.583 4.167C13.893 4.167 13.333 3.607 13.333 2.917C13.333 2.227 13.893 1.667 14.583 1.667C15.273 1.667 15.833 2.227 15.833 2.917ZM14.583 18.333C15.273 18.333 15.833 17.773 15.833 17.083C15.833 16.393 15.273 15.833 14.583 15.833C13.893 15.833 13.333 16.393 13.333 17.083C13.333 17.773 13.893 18.333 14.583 18.333ZM4.167 10C4.167 9.31 4.727 8.75 5.417 8.75C6.107 8.75 6.667 9.31 6.667 10C6.667 10.69 6.107 11.25 5.417 11.25C4.727 11.25 4.167 10.69 4.167 10Z" fill="#9FCB3D"/>
</svg>
