<svg xmlns="http://www.w3.org/2000/svg" width="23" height="23" viewBox="0 0 23 23">
    <path fill="#666" d="M3.729 9.583c.22 0 .369-.114.449-.344.419-.998.684-1.582.793-1.752.7-1.138 1.628-2.031 2.786-2.68 1.157-.65 2.405-.974 3.743-.974 2.007 0 3.748.684 5.226 2.052L14.66 7.95c-.19.19-.285.414-.285.674 0 .26.095.484.285.674.19.19.414.284.673.284h6.709c.26 0 .484-.095.673-.284.19-.19.285-.414.285-.674V1.917c0-.26-.095-.484-.285-.674-.19-.19-.414-.285-.673-.285-.26 0-.484.095-.674.285L19.42 3.174c-1.068-1.008-2.29-1.789-3.668-2.343C14.375.277 12.957 0 11.5 0 8.755 0 6.359.831 4.312 2.493 2.267 4.155.918 6.324.27 9v.105c0 .13.047.242.142.337.095.095.207.142.337.142h2.98zM11.44 23c2.735 0 5.121-.831 7.158-2.493 2.036-1.662 3.374-3.831 4.013-6.506.01-.02.015-.055.015-.105 0-.13-.048-.242-.143-.337-.094-.095-.207-.142-.337-.142h-2.875c-.22 0-.369.114-.449.344-.419.998-.684 1.582-.793 1.752-.7 1.138-1.628 2.031-2.786 2.68-1.157.65-2.405.974-3.743.974-.968 0-1.902-.18-2.8-.54-.899-.359-1.702-.868-2.41-1.527l2.05-2.051c.19-.19.285-.414.285-.674 0-.26-.095-.484-.285-.674-.19-.19-.414-.284-.673-.284H.958c-.26 0-.484.095-.673.284-.19.19-.285.414-.285.674v6.708c0 .26.095.484.285.674.19.19.414.285.673.285.26 0 .484-.095.674-.285l1.932-1.931c1.068 1.018 2.283 1.801 3.646 2.35 1.363.55 2.773.824 4.23.824z"/>
</svg>
