<svg xmlns="http://www.w3.org/2000/svg" width="24" height="24" viewBox="0 0 24 24">
    <path fill="#FFFFFF" d="M22.5 24c.417 0 .77-.146 1.063-.438.291-.291.437-.645.437-1.062V8c0-.417-.104-.875-.313-1.375-.208-.5-.458-.896-.75-1.188l-4.375-4.375c-.291-.291-.687-.541-1.187-.75C16.875.105 16.417 0 16 0H1.5C1.083 0 .73.146.437.438.147.728 0 1.083 0 1.5v21c0 .417.146.77.438 1.063.291.291.645.437 1.062.437h21zM4 22H2V2h2v6.5c0 .417.146.77.438 1.063.291.291.645.437 1.062.437h9c.417 0 .77-.146 1.063-.438.291-.291.437-.645.437-1.062V2c.156 0 .36.052.61.156.25.104.426.209.53.313l4.391 4.39c.104.105.209.284.313.54.104.255.156.455.156.601v14h-2v-6.5c0-.417-.146-.77-.438-1.063-.291-.291-.645-.437-1.062-.437h-13c-.417 0-.77.146-1.063.438-.291.291-.437.645-.437 1.062V22zm9.5-14h-3c-.135 0-.253-.05-.352-.148-.099-.1-.148-.217-.148-.352v-5c0-.135.05-.253.148-.352.1-.099.217-.148.352-.148h3c.135 0 .253.05.352.148.099.1.148.217.148.352v5c0 .135-.05.253-.148.352-.1.099-.217.148-.352.148zM18 22H6v-6h12v6z"/>
</svg>
