<svg width="25" height="24" viewBox="0 0 25 24" fill="none" xmlns="http://www.w3.org/2000/svg">
<path d="M14.115 11.9987L23.5591 2.56955C23.8414 2.28727 24 1.90441 24 1.50521C24 1.106 23.8414 0.723146 23.5591 0.440865C23.2769 0.158584 22.894 0 22.4948 0C22.0956 0 21.7127 0.158584 21.4305 0.440865L12.0013 9.88503L2.57211 0.440865C2.28983 0.158584 1.90697 3.54433e-07 1.50777 3.57407e-07C1.10856 3.60381e-07 0.725704 0.158584 0.443423 0.440865C0.161142 0.723146 0.00255868 1.106 0.00255868 1.50521C0.00255867 1.90441 0.161142 2.28727 0.443423 2.56955L9.88759 11.9987L0.443423 21.4279C0.302918 21.5673 0.191395 21.733 0.115289 21.9157C0.0391835 22.0984 0 22.2943 0 22.4922C0 22.6901 0.0391835 22.8861 0.115289 23.0687C0.191395 23.2514 0.302918 23.4172 0.443423 23.5566C0.582782 23.6971 0.748581 23.8086 0.931257 23.8847C1.11393 23.9608 1.30987 24 1.50777 24C1.70566 24 1.9016 23.9608 2.08427 23.8847C2.26695 23.8086 2.43275 23.6971 2.57211 23.5566L12.0013 14.1124L21.4305 23.5566C21.5698 23.6971 21.7356 23.8086 21.9183 23.8847C22.101 23.9608 22.2969 24 22.4948 24C22.6927 24 22.8886 23.9608 23.0713 23.8847C23.254 23.8086 23.4198 23.6971 23.5591 23.5566C23.6996 23.4172 23.8112 23.2514 23.8873 23.0687C23.9634 22.8861 24.0026 22.6901 24.0026 22.4922C24.0026 22.2943 23.9634 22.0984 23.8873 21.9157C23.8112 21.733 23.6996 21.5673 23.5591 21.4279L14.115 11.9987Z" fill="#9FCB3D"/>
</svg>
