<svg xmlns="http://www.w3.org/2000/svg" width="21" height="21" viewBox="0 0.8 21 21">
    <g fill="none">
        <path fill="#343434" d="M11.729 15.316L11.729 11.729 15.316 11.729 15.316 9.587 11.729 9.587 11.729 6 9.587 6 9.587 9.587 6 9.587 6 11.729 9.587 11.729 9.587 15.316z"/>
        <path fill="#324E4F" d="M10.497.809c-5.799 0-10.5 4.701-10.5 10.5s4.701 10.5 10.5 10.5 10.5-4.701 10.5-10.5-4.701-10.5-10.5-10.5zm0 2c4.694 0 8.5 3.806 8.5 8.5s-3.806 8.5-8.5 8.5-8.5-3.806-8.5-8.5 3.806-8.5 8.5-8.5z"/>
    </g>
</svg>
