<svg width="39" height="34" viewBox="0 0 39 34" fill="none" xmlns="http://www.w3.org/2000/svg">
<path d="M29.817 1H9.05C6.827 1 4.815 1.901 3.358 3.358C1.9 4.815 1 6.828 1 9.05V24.803C1 27.026 1.901 29.039 3.358 30.496C4.815 31.952 6.828 32.853 9.05 32.853H29.817C32.04 32.853 34.052 31.953 35.509 30.496C36.966 29.039 37.867 27.026 37.867 24.803V9.05C37.867 6.827 36.966 4.815 35.509 3.358C34.052 1.9 32.039 1 29.817 1Z" fill="white" stroke="#E4E5EB"/>
<path fill-rule="evenodd" clip-rule="evenodd" d="M21.287 8.583C21.646 7.38 22.762 6.5 24.083 6.5C25.405 6.5 26.521 7.379 26.879 8.583H28.666C29.126 8.583 29.5 8.953 29.5 9.417C29.5 9.877 29.127 10.25 28.666 10.25H26.88C26.522 11.455 25.406 12.333 24.084 12.333C22.764 12.333 21.647 11.455 21.288 10.25H10.334C9.874 10.25 9.5 9.88 9.5 9.417C9.5 8.957 9.873 8.583 10.334 8.583H21.287ZM14.917 19.417C16.238 19.417 17.354 18.538 17.713 17.333H28.666C29.127 17.333 29.5 16.96 29.5 16.5C29.5 16.037 29.126 15.667 28.666 15.667H17.713C17.354 14.462 16.237 13.583 14.917 13.583C13.595 13.583 12.479 14.462 12.121 15.667H10.334C9.873 15.667 9.5 16.04 9.5 16.5C9.5 16.963 9.874 17.333 10.334 17.333H12.121C12.479 18.538 13.595 19.417 14.917 19.417ZM24.083 20.667C22.762 20.667 21.646 21.545 21.287 22.75H10.334C9.873 22.75 9.5 23.123 9.5 23.583C9.5 24.047 9.874 24.417 10.334 24.417H21.287C21.646 25.621 22.763 26.5 24.083 26.5C25.405 26.5 26.521 25.62 26.88 24.417H28.666C29.127 24.417 29.5 24.043 29.5 23.583C29.5 23.12 29.126 22.75 28.666 22.75H26.879C26.521 21.545 25.405 20.667 24.083 20.667ZM25.333 9.417C25.333 10.107 24.773 10.667 24.083 10.667C23.393 10.667 22.833 10.107 22.833 9.417C22.833 8.727 23.393 8.167 24.083 8.167C24.773 8.167 25.333 8.727 25.333 9.417ZM24.083 24.833C24.773 24.833 25.333 24.273 25.333 23.583C25.333 22.893 24.773 22.333 24.083 22.333C23.393 22.333 22.833 22.893 22.833 23.583C22.833 24.273 23.393 24.833 24.083 24.833ZM13.667 16.5C13.667 15.81 14.227 15.25 14.917 15.25C15.607 15.25 16.167 15.81 16.167 16.5C16.167 17.19 15.607 17.75 14.917 17.75C14.227 17.75 13.667 17.19 13.667 16.5Z" fill="#78D700"/>
</svg>
