<svg xmlns="http://www.w3.org/2000/svg" width="24" height="24" viewBox="0 0 15 18">
    <g fill="#324e4f">
        <path d="M2.175 16.125c.075.994.919 1.781 1.913 1.781h6.056c1.012 0 1.837-.768 1.912-1.781L12.881 5.4H1.35l.825 10.725zm6.881-7.838c0-.262.207-.487.488-.487.262 0 .487.206.487.487v6.732c0 .262-.206.487-.487.487-.263 0-.488-.206-.488-.487V8.287zm-2.418 0c0-.262.206-.487.487-.487.263 0 .487.206.487.487v6.732c0 .262-.206.487-.487.487-.263 0-.487-.206-.487-.487V8.287zm-2.4 0c0-.262.206-.487.487-.487.263 0 .488.206.488.487v6.732c0 .262-.207.487-.488.487-.262 0-.487-.206-.487-.487V8.287zM12.544 2.513H9.9V1.93C9.9.92 9.075.075 8.044.075H6.206C5.194.075 4.35.9 4.35 1.931v.582H1.706C.844 2.513.15 3.206.15 4.069c0 .206.169.375.375.375h13.2c.206 0 .375-.169.375-.375 0-.863-.694-1.556-1.556-1.556zm-6.75-.563c0-.225.187-.412.412-.412h1.838c.225 0 .412.187.412.412v.581H5.794V1.95z"/>
    </g>
</svg>
