<svg xmlns="http://www.w3.org/2000/svg" width="23" height="25" viewBox="0 0 23 25">
    <g fill="#9FCB3D">
        <path d="M7.044 0c-1.037 0-1.88.861-1.88 1.92v6.707H1.406C.631 8.627 0 9.272 0 10.064v7.191c0 .793.631 1.437 1.407 1.437h3.756v4.314c0 1.057.844 1.917 1.88 1.917H21.12c1.037 0 1.88-.86 1.88-1.916V7.077c0-.124-.046-.243-.13-.332L16.65.147C16.562.053 16.44 0 16.312 0H7.044zm9.384 1.294l5.105 5.416h-5.105V1.294zM1.408 9.586h12.674c.259 0 .469.215.469.478v7.192c0 .263-.21.478-.469.478H1.407c-.258 0-.468-.215-.468-.478v-7.192c0-.263.21-.478.468-.478z"/>
        <path d="M5.118 15.744v-.8H3.252v-.8h1.67v-.8h-1.67v-.733H5.02v-.8H2.403v3.933h2.715zm1.295 0l.914-1.583.941 1.583h1.067l-1.393-2.072 1.246-1.861H8.159l-.789 1.378-.821-1.378H5.482l1.274 1.878-1.35 2.055h1.007zm6.06 0v-.8h-1.865v-.8h1.67v-.8h-1.67v-.733h1.768v-.8H9.759v3.933h2.715z"/>
    </g>
</svg>
